<?xml version="1.0" encoding="utf-8"?>
<!-- Generator: Adobe Illustrator 22.0.1, SVG Export Plug-In . SVG Version: 6.00 Build 0)  -->
<svg version="1.1" id="Layer_1" xmlns="http://www.w3.org/2000/svg" xmlns:xlink="http://www.w3.org/1999/xlink" x="0px" y="0px"
	 viewBox="0 0 1296 1728" style="enable-background:new 0 0 1296 1728;" xml:space="preserve">
<style type="text/css">
	.st0{fill:url(#SVGID_1_);}
	.st1{fill:url(#SVGID_2_);}
	.st2{fill:url(#SVGID_3_);}
	.st3{fill:url(#SVGID_4_);}
	.st4{fill:url(#SVGID_5_);}
	.st5{fill:url(#SVGID_6_);}
	.st6{fill:url(#SVGID_7_);}
	.st7{fill:url(#SVGID_8_);}
	.st8{opacity:0.83;fill:url(#SVGID_9_);}
	.st9{fill:url(#SVGID_10_);}
	.st10{fill:url(#SVGID_11_);}
	.st11{fill:url(#SVGID_12_);}
	.st12{fill:url(#SVGID_13_);}
	.st13{fill:url(#SVGID_14_);}
	.st14{opacity:0.83;fill:url(#SVGID_15_);}
	.st15{fill:url(#SVGID_16_);}
	.st16{fill:url(#SVGID_17_);}
	.st17{fill:url(#SVGID_18_);}
</style>
<g>
	<linearGradient id="SVGID_1_" gradientUnits="userSpaceOnUse" x1="353.793" y1="759.579" x2="496.8498" y2="759.579">
		<stop  offset="0" style="stop-color:#ED1C24"/>
		<stop  offset="2.159472e-02" style="stop-color:#EC2326"/>
		<stop  offset="0.1882" style="stop-color:#E55134"/>
		<stop  offset="0.3362" style="stop-color:#DF723E"/>
		<stop  offset="0.4586" style="stop-color:#DC8744"/>
		<stop  offset="0.5403" style="stop-color:#DB8E46"/>
		<stop  offset="1" style="stop-color:#C9403D"/>
	</linearGradient>
	<path class="st0" d="M452.6,742.5c0-3.3-0.2-6.2-0.5-8.6c-0.3-2.5-0.9-5.1-1.7-8c-0.8-2.9-2.1-5.5-3.7-7.9
		c-1.6-2.4-3.7-4.4-6.2-5.9c-2.5-1.6-5.6-2.3-9.4-2.1c-7.4,0.3-13.3,1.4-17.5,3.2c-4.3,1.8-7.4,4.4-9.4,7.7
		c-2.6,4.3-4.4,9.7-5.3,16.3c-0.9,6.6-1.2,14.1-0.9,22.5c0.3,6.9,0.9,13.9,1.6,20.9c0.7,7,2.4,13,5.1,18.2c1.6,3.3,4.2,6,7.8,8.1
		c3.5,2.1,8.4,3,14.7,2.7c5.4-0.3,9.7-1.4,12.8-3.3c3.1-1.9,5.4-4.4,6.9-7.5l-29.4-1.7l2.7-44l31.1,2l31.6,2.2l12.8,0.5
		c-0.2,2.3-0.3,4.7-0.4,7c-0.1,2.4-0.1,4.9-0.1,7.5c-0.2,10-1.4,19.8-3.7,29.4c-2.3,9.5-6.1,18.1-11.2,25.6
		c-5.2,7.5-12,13.6-20.4,18.4s-18.9,7.3-31.4,7.7c-8.4,0.3-15.9-0.3-22.6-2c-6.7-1.6-12.6-4-17.7-7c-5.2-3-9.7-6.8-13.5-11.2
		c-3.8-4.4-7.1-9.3-9.7-14.6c-4.6-8.9-7.5-18.4-8.8-28.4c-1.3-10-2.1-19.7-2.5-28.9c-0.3-12.3,0.4-23.8,2.2-34.4
		c1.8-10.6,5.3-20.2,10.6-28.8c6.1-9.7,14.1-17.3,24.1-22.8c10-5.5,23-8.5,39-9c11.5-0.3,21.2,1.4,29.1,5.1
		c7.9,3.7,14.3,8.4,19.3,14.1s8.7,11.9,11.2,18.6c2.6,6.8,4.4,13,5.6,18.9c1.1,5.8,1.8,12.7,2,20.6L452.6,742.5z"/>
	<g>
		<path d="M452.2,742.9c-0.1-0.2-0.1-0.4-0.2-0.7c0-0.1,0-0.2,0-0.4l0-0.2l-0.1-0.8l-0.1-1.6c-0.1-1-0.2-2.1-0.4-3.1
			c-0.3-2.1-0.7-4.1-1.3-6.1c-0.6-2-1.2-4-2-5.8c-0.8-1.8-1.8-3.6-3-5.1c-1.2-1.5-2.5-2.9-4.1-4c-0.8-0.5-1.6-1.1-2.4-1.5
			c-0.8-0.4-1.6-0.6-2.5-0.8c-1.8-0.4-3.6-0.4-5.6-0.2c-2.1,0.2-4.1,0.4-6.1,0.8c-4,0.7-7.9,1.7-11.1,3.5c-1.6,0.9-3,2-4.2,3.2
			c-0.6,0.6-1.1,1.3-1.5,2c-0.2,0.3-0.4,0.7-0.7,1.2c-0.2,0.4-0.4,0.8-0.6,1.3c-3.2,6.8-3.9,15.1-4,23.3c0,4.1,0,8.3,0.3,12.4
			c0.3,4.2,0.6,8.4,1.1,12.5c0.2,2.1,0.4,4.2,0.7,6.3c0.2,2.1,0.5,3.9,0.9,5.9c0.8,3.8,2,7.5,3.6,10.8c0.5,0.9,0.8,1.5,1.2,2.1
			c0.4,0.6,0.9,1.2,1.5,1.8c0.5,0.6,1.2,1.1,1.8,1.6c0.3,0.2,0.7,0.5,1,0.7c0.4,0.2,0.7,0.5,1,0.6c2.4,1.3,6,1.8,9.7,1.7
			c3.7-0.1,7.6-0.7,10.4-1.9c0.4-0.2,0.7-0.3,1-0.5c0.3-0.2,0.6-0.4,1-0.6c0.6-0.4,1.2-0.9,1.8-1.4c1.1-1,1.9-2.2,2.6-3.5l4.5,7.6
			c-4.9-0.3-9.8-0.7-14.7-1l-14.7-1.1l-5.1-0.4l0.4-4.9l1.9-21.9l2.1-21.9l0.4-3.8l3.5,0.3l37.7,3.6c6.3,0.6,12.6,1.1,18.8,1.7
			c6.3,0.7,12.6,0.8,18.9,1.2l1.9,0.1l-0.1,1.9c-0.2,2.7-0.3,5.4-0.4,8.1l-0.2,8.2c-0.1,5.5-0.6,11.1-1.4,16.5
			c-0.4,2.7-0.9,5.5-1.5,8.2c-0.6,2.7-1.2,5.4-2,8.1c-1.5,5.4-3.7,10.6-6.3,15.6c-2.6,5-5.9,9.7-9.8,13.9
			c-3.9,4.2-8.3,7.8-13.1,10.9c-4.8,3.1-10.3,5.5-15.8,7c-5.5,1.6-11.2,2.4-16.9,2.8c-5.6,0.4-11.3,0.5-17.1-0.1
			c-2.9-0.3-5.8-0.7-8.6-1.4c-2.8-0.6-5.6-1.4-8.4-2.4c-5.5-1.9-10.9-4.6-15.8-8.1c-2.4-1.7-4.7-3.7-6.9-5.8c-1.1-1-2.1-2.1-3.1-3.3
			c-1-1.1-1.9-2.2-2.8-3.4c-1.8-2.3-3.5-4.7-5-7.3c-0.8-1.3-1.5-2.6-2.2-3.8c-0.7-1.3-1.3-2.5-1.9-3.8c-2.5-5.2-4.6-10.7-6-16.4
			c-0.7-2.8-1.4-5.7-1.8-8.5l-0.3-2.2l-0.3-2.1l-0.5-4.1c-0.7-5.5-1.2-11.1-1.6-16.6c-0.2-2.8-0.4-5.6-0.4-8.4
			c-0.1-2.8-0.1-5.6-0.1-8.4c0.1-5.6,0.4-11.3,1-16.9c0.3-2.8,0.7-5.6,1.2-8.5c0.5-2.9,1.1-5.7,1.8-8.6c1.5-5.7,3.6-11.2,6.2-16.5
			c5.3-10.7,13.4-20.1,23.2-26.9c2.5-1.7,5-3.2,7.7-4.6c2.7-1.4,5.5-2.6,8.3-3.6c5.6-2,11.4-3.2,17.1-4c5.7-0.8,11.4-1.1,17.1-1.1
			c5.8,0,11.6,0.5,17.4,1.8c2.9,0.7,5.8,1.5,8.6,2.6c1.4,0.5,2.8,1.2,4.1,1.9c1.3,0.7,2.6,1.3,3.9,2.1c5.1,2.9,9.9,6.5,14,10.8
			c2.1,2.2,3.9,4.5,5.6,6.8c1.7,2.4,3.2,4.9,4.6,7.5c1.4,2.6,2.5,5.3,3.5,8c0.9,2.7,1.8,5.3,2.6,8c1.6,5.4,2.7,11,3.4,16.6
			c0.6,5.6,0.8,11.2,0.7,16.7l0,2.8l-2.6-0.1c-7.7-0.4-15.3-0.9-22.7-1.4L452.2,742.9z M453.1,742.1c7.6-0.2,15.1-0.5,22.3-0.8
			c7.3-0.3,14.4-0.5,21.5-0.7l-2.6,2.6c-0.3-5.4-0.8-10.7-1.8-15.9c-0.9-5.2-2.4-10.2-4.2-15.3c-0.9-2.5-1.8-5-2.8-7.4
			c-1-2.3-2.1-4.6-3.4-6.8c-1.3-2.2-2.7-4.3-4.3-6.3c-1.6-2-3.3-3.9-5-5.6c-3.6-3.4-7.7-6.3-12.2-8.6c-1.1-0.6-2.3-1.1-3.4-1.6
			c-1.1-0.5-2.2-0.9-3.4-1.3c-2.3-0.8-4.7-1.4-7.1-1.9c-4.9-0.9-10-1.2-15.1-1c-5.2,0.2-10.4,0.7-15.5,1.5c-5.1,0.9-10,2.1-14.7,3.9
			c-2.3,0.9-4.6,1.9-6.7,3.1c-2.1,1.2-4.3,2.5-6.3,3.9c-8.1,5.7-14.5,13.5-18.9,22.4c-2.2,4.5-4,9.2-5.3,14.1
			c-0.7,2.4-1.2,4.9-1.6,7.4c-0.4,2.6-0.8,5.2-1.1,7.8c-1.2,10.4-1.6,21-1,31.6c0.3,5.3,0.7,10.7,1.2,16l0.4,4l0.2,2l0.2,1.9
			c0.4,2.5,0.8,5,1.4,7.5c1.2,5,2.8,9.8,5,14.4c0.5,1.2,1.1,2.3,1.7,3.5c0.6,1.1,1.2,2.2,1.8,3.3c1.2,2.2,2.6,4.3,4.1,6.3
			c0.7,1,1.5,2,2.3,3c0.8,1,1.6,1.9,2.5,2.8c1.7,1.8,3.6,3.4,5.5,4.9c4,3,8.3,5.4,13,7.3c2.4,0.9,4.8,1.7,7.3,2.4
			c2.4,0.7,4.9,1.2,7.5,1.6c5.1,0.8,10.3,1,15.6,0.9c10.5-0.1,20.9-2,29.9-7.1c4.5-2.6,8.8-5.7,12.5-9.3c3.7-3.7,6.9-7.9,9.6-12.5
			c2.6-4.6,4.8-9.5,6.4-14.6c1.6-5.1,2.7-10.4,3.6-15.7c0.8-5.3,1.3-10.7,1.5-16.1c0.1-2.6,0.1-5.5,0.1-8.2c0-2.7,0.3-5.5,0.4-8.3
			l1.8,2l-9.5-0.3c-3.2,0-6.3-0.2-9.5-0.4c-6.3-0.3-12.6-0.7-18.9-0.9c-12.6-0.6-25.2-0.9-37.8-1.3l3.9-3.4l-0.6,22l-0.8,22
			l-4.6-5.2l14.7,0.6c4.9,0.2,9.8,0.4,14.7,0.7l7.9,0.4l-3.4,7.2c-1.2,2.5-2.9,4.9-4.9,6.8c-1,1-2.1,1.8-3.2,2.5
			c-0.6,0.4-1.1,0.7-1.8,1.1c-0.6,0.3-1.2,0.6-1.9,0.9c-2.5,1.1-5,1.7-7.4,2.1c-2.4,0.4-4.8,0.6-7.2,0.6c-2.4,0-4.8-0.1-7.4-0.6
			c-2.5-0.5-5.1-1.2-7.7-2.6c-0.7-0.4-1.2-0.7-1.7-1.1c-0.5-0.4-1.1-0.7-1.6-1.1c-1-0.8-2-1.7-3-2.7c-0.9-1-1.8-2-2.6-3.2
			c-0.8-1.1-1.5-2.4-1.9-3.4c-2.1-4.3-3.4-8.9-4.2-13.4c-0.4-2.3-0.7-4.6-0.9-6.8c-0.2-2.1-0.4-4.3-0.5-6.4
			c-0.3-4.3-0.5-8.6-0.7-12.9c-0.1-4.4-0.1-8.8,0.2-13.2c0.3-4.4,0.7-8.8,1.6-13.2c0.9-4.5,2.2-8.9,4.5-13.2c0.3-0.5,0.6-1,0.9-1.6
			c0.3-0.5,0.6-1,1-1.6c0.8-1.1,1.6-2,2.6-2.9c1.9-1.8,4-3.1,6.2-4.2c4.4-2.1,9-2.9,13.4-3.3c2.2-0.2,4.4-0.3,6.6-0.4
			c2.2-0.1,4.7,0.1,7.1,0.8c1.2,0.4,2.4,0.8,3.5,1.5c0.3,0.2,0.5,0.3,0.8,0.5c0.2,0.2,0.5,0.3,0.7,0.5c0.5,0.3,0.9,0.7,1.4,1.1
			c1.8,1.5,3.3,3.3,4.6,5.3c1.2,1.9,2.2,4,2.9,6.2c0.7,2.2,1.1,4.3,1.5,6.4c0.4,2.1,0.6,4.3,0.6,6.5c0,1.1,0,2.2,0,3.2l-0.1,1.6
			l0,0.8l0,0.2c0,0,0,0,0,0C453.2,742,453.1,742,453.1,742.1z"/>
	</g>
</g>
<g>
	<linearGradient id="SVGID_2_" gradientUnits="userSpaceOnUse" x1="494.8747" y1="767.0901" x2="638.1027" y2="767.0901">
		<stop  offset="0" style="stop-color:#ED1C24"/>
		<stop  offset="2.159472e-02" style="stop-color:#EC2326"/>
		<stop  offset="0.1882" style="stop-color:#E55134"/>
		<stop  offset="0.3362" style="stop-color:#DF723E"/>
		<stop  offset="0.4586" style="stop-color:#DC8744"/>
		<stop  offset="0.5403" style="stop-color:#DB8E46"/>
		<stop  offset="1" style="stop-color:#C9403D"/>
	</linearGradient>
	<path class="st1" d="M544.3,679.1l44.2-1.2l49.6,161.5l-42.2,13.6l-7.2-22.5l-44,1l-7.4,24.9l-42.5-13.1L544.3,679.1z M566.5,761.5
		l-7.9,25.2l15.8-0.2L566.5,761.5z"/>
	<g>
		<path d="M543.9,678.6c3.5-0.4,7-0.8,10.7-1.2l5.5-0.6l5.6-0.6c3.7-0.4,7.5-0.8,11.3-1.1l11.5-0.9l2.6-0.2l1,2.8
			c4.8,13.3,9.3,26.6,13.7,40c2.2,6.7,4.4,13.4,6.5,20.1c2.1,6.7,4.2,13.4,6.2,20.2c3.9,13.5,7.4,27.2,10.8,40.9
			c1.7,6.8,3.4,13.7,5.2,20.5c1.7,6.8,3.6,13.6,5.6,20.4l0.5,1.9l-1.8,0.5c-3.5,1.1-7.1,2.2-10.6,3.3c-3.5,1.1-7,2.3-10.6,3.4
			c-3.5,1.2-7,2.3-10.5,3.6l-10.5,3.6l-2.1,0.7l-0.8-2.2l-4-11.1l-4.1-11.1l3.1,2.2l-22,1.5c-3.7,0.3-7.3,0.5-11,0.7l-11,0.6
			l4.7-3.6l-3.4,12.6l-3.5,12.5l-1.5,5.4l-5.6-1.6l-21.4-6.1l-21.3-6.2l-6-1.7l1.8-6.2c4.1-14,8.3-28,12.8-41.9
			c4.4-13.9,9.1-27.7,13.7-41.3l7-20.4l7.1-20.1C534.2,704.4,539,691.3,543.9,678.6z M544.6,679.5c-3.3,14.7-6.8,28.9-10.2,43
			l-5.2,21l-5.3,20.7c-3.6,13.7-7.2,27.3-11,40.8c-3.8,13.5-7.7,26.8-11.9,40.2l-4.2-7.9l21.1,6.9L539,851l-7,3.8l4-12.4l4-12.4
			l1.2-3.6l3.5,0l11,0.1c3.7,0,7.3,0.1,11,0.2l22,0.5l2.5,0.1l0.6,2.2l3.1,11.4l3.2,11.4l-2.8-1.5l10.6-3.2c3.5-1,7.1-2.2,10.6-3.2
			c3.5-1.1,7.1-2.2,10.6-3.4c3.5-1.1,7-2.3,10.5-3.5l-1.3,2.4c-2.2-6.7-4.4-13.4-6.8-20c-2.4-6.6-4.8-13.3-7.2-19.9
			c-4.9-13.2-9.7-26.5-14-39.9c-2.2-6.7-4.2-13.4-6.2-20.2c-2-6.7-4-13.5-5.9-20.3c-3.9-13.5-7.6-27.1-11.1-40.8l3.6,2.6l-10.6-0.3
			c-3.6-0.1-7.2-0.3-10.8-0.5l-5.5-0.3l-5.6-0.3L544.6,679.5z"/>
		<path d="M566.5,762.1c-0.6,3.9-0.8,7-0.8,9.7c0,2.7,0.1,4.9,0.1,6.7c0,0.9-0.1,1.7-0.4,2.4c-0.3,0.7-0.8,1.2-1.4,1.8
			c-0.6,0.6-1.3,1.3-2,2c-0.6,0.8-1.2,1.7-1.6,2.6l-1.8-2.4c1.3,0.1,2.6,0,3.9-0.3c1.3-0.3,2.6-0.8,3.9-1.3c1.3-0.5,2.6-1.1,3.9-1.5
			c1.3-0.4,2.6-0.7,3.9-0.9l-5.2,7.3c-0.8-1.6-1.6-2.9-2-4.4c-0.4-1.4-0.3-3-0.1-5.1c0.2-2,0.4-4.3,0.4-7.1
			C567.3,768.9,567.1,765.8,566.5,762.1z M566.5,760.9c0.7,0.5,1.8,1.6,3.1,2.9c1.3,1.4,2.8,3.2,4.3,5.4c1.5,2.1,2.9,4.7,3.9,7.4
			c1,2.7,1.5,5.5,2,8.1l1.5,8.2l-6.7-0.9c-1.3-0.2-2.6-0.4-4-0.8c-1.3-0.4-2.6-0.9-4-1.4c-1.3-0.5-2.6-0.9-4-1.2
			c-1.3-0.2-2.6-0.3-4-0.2l-2.4,0.2l0.6-2.6c0.3-1.1,0.4-2.4,0.4-3.7c0-1.3-0.1-2.8,0-4.3c0-1.5,0.2-3,0.6-4.5
			c0.4-1.4,0.9-2.8,1.6-3.9c1.3-2.4,2.7-4.4,4-5.9C564.7,762.4,565.8,761.2,566.5,760.9z"/>
	</g>
</g>
<g>
	<linearGradient id="SVGID_3_" gradientUnits="userSpaceOnUse" x1="642.5451" y1="761.0398" x2="800.5895" y2="761.0398">
		<stop  offset="0" style="stop-color:#ED1C24"/>
		<stop  offset="2.159472e-02" style="stop-color:#EC2326"/>
		<stop  offset="0.1882" style="stop-color:#E55134"/>
		<stop  offset="0.3362" style="stop-color:#DF723E"/>
		<stop  offset="0.4586" style="stop-color:#DC8744"/>
		<stop  offset="0.5403" style="stop-color:#DB8E46"/>
		<stop  offset="1" style="stop-color:#C9403D"/>
	</linearGradient>
	<path class="st2" d="M642.5,847.5l3.7-161l43.7-6.9v-0.2l32.8,48.2l34.3-56.6l43.5,7.7l-1.5,172.6l-44.2-0.5l0.7-92.4l-12.8,21.5
		l-18,29.4l-19-28.4L689,756.6l-2,92.1L642.5,847.5z"/>
	<g>
		<path d="M642.1,847.9c-0.3-12.9-0.6-26-0.8-39.3l-0.3-20c-0.1-6.7-0.2-13.4-0.2-20.2c-0.1-13.5-0.2-27.2-0.1-40.9
			c0-13.7,0.1-27.4,0.3-41.1l0.1-4.3l4.3-0.7l21.8-3.6l10.9-1.8l10.9-1.7l-4.5,5.3l0-0.2l0.1-17.4l9.7,14.4
			c5.4,8.1,10.8,16.1,16.1,24.3c2.7,4.1,5.3,8.2,7.9,12.2l7.9,12.3l-7.2,0.2l18.1-27.7l9-13.9c3-4.6,6-9.3,8.9-13.9l0.9-1.4l1.5,0.3
			l21.7,4.2l10.9,2l10.9,2l1.5,0.3l0,1.5c-0.1,14.4-0.2,28.8-0.1,43.2l0.1,10.8l0.1,10.8c0.1,7.2,0.2,14.4,0.3,21.6l0.8,43.2
			c0.1,7.2,0.3,14.4,0.3,21.6c0.1,7.2,0.2,14.4,0.2,21.6l0,5.1l-5.2,0l-22.1,0.1l-22.1,0l-5.6,0l0-5.7l-0.1-46.2l0-23.1l0.1-23.1
			l12,3.4l-7.7,12.8c-2.6,4.3-5.1,8.5-7.7,12.7l-7.9,12.6l-7.9,12.6l-5.1,8.2l-5.2-8l-8.7-13.3l-8.6-13.3c-2.9-4.4-5.9-8.8-8.8-13.2
			c-3-4.4-5.9-8.8-8.8-13.2l9.3-2.8l-1,23c-0.3,7.7-0.7,15.3-1.1,23c-0.4,7.7-0.7,15.3-1.2,23l-1.3,23l-0.1,2.7l-2.5-0.2
			c-7.7-0.5-15.4-1-22.8-1.7L642.1,847.9z M643,847.1c7.6-0.1,15.1-0.3,22.5-0.5c7.3-0.2,14.5-0.3,21.6-0.4l-2.6,2.5l-0.3-23
			c-0.1-7.7-0.1-15.4-0.2-23c0-7.7-0.1-15.4-0.1-23l0-23l0-15.7l9.3,12.8c3.1,4.3,6.2,8.6,9.3,12.9c3.1,4.3,6.2,8.6,9.3,13l9.1,13.1
			l9,13.1l-10.3,0.2l7.6-12.7l7.7-12.7c2.6-4.2,5.1-8.5,7.6-12.8l7.6-12.8l12.3-20.6l-0.3,23.9l-0.3,23.1l-0.4,23.1l-0.8,46.2
			L755,845l22.1,0.5l22.1,0.6l-5.2,5.1c0.1-7.2,0.4-14.4,0.6-21.6c0.2-7.2,0.5-14.4,0.7-21.6l1.5-43.1c0.3-7.2,0.5-14.4,0.7-21.6
			l0.3-10.8l0.2-10.8c0.4-14.4,0.5-28.8,0.7-43.2l1.5,1.8l-10.9-1.9l-10.9-1.8l-21.8-3.4l2.4-1.1c-2.8,4.8-5.5,9.6-8.2,14.4
			l-8.2,14.4l-16.3,28.8l-3.2,5.7l-4-5.5l-8.5-11.8c-2.8-3.9-5.7-7.9-8.5-11.8c-5.6-7.9-11.2-15.9-16.7-23.9l9.8-3l0,0.2l0,4.6
			l-4.6,0.7l-10.9,1.7l-10.9,1.7l-21.9,3.3l4.4-5c-0.4,13.1-1,26.2-1.5,39.4c-0.5,13.1-1.3,26.4-2,39.6c-0.3,6.6-0.8,13.3-1.2,20
			l-1.2,20.2L643,847.1z"/>
	</g>
</g>
<g>
	<linearGradient id="SVGID_4_" gradientUnits="userSpaceOnUse" x1="811.9484" y1="764.4973" x2="924.0612" y2="764.4973">
		<stop  offset="0" style="stop-color:#ED1C24"/>
		<stop  offset="2.159472e-02" style="stop-color:#EC2326"/>
		<stop  offset="0.1882" style="stop-color:#E55134"/>
		<stop  offset="0.3362" style="stop-color:#DF723E"/>
		<stop  offset="0.4586" style="stop-color:#DC8744"/>
		<stop  offset="0.5403" style="stop-color:#DB8E46"/>
		<stop  offset="1" style="stop-color:#C9403D"/>
	</linearGradient>
	<path class="st3" d="M921.8,675.8l-0.2,44.5l-65.4-0.7v21.7l67.7,0.5l-0.2,44.5l-67.4-0.5l0.2,23.2l67.7,0.5l-0.5,44.2
		c-18.9-0.3-37.5-0.5-55.8-0.4c-18.3,0.1-36.8,0.1-55.6,0.1l-0.2-178c18.3,0,36.5,0,54.8,0.1C885,675.6,903.4,675.7,921.8,675.8z"/>
	<g>
		<path d="M922.3,675.4l1.2,21.9c0.2,3.7,0.4,7.6,0.6,11.4c0.2,3.8,0.3,7.7,0.5,11.6l0.1,2.8l-3,0.1l-16.4,0.4
			c-5.5,0.2-10.9,0.2-16.4,0.3l-16.4,0.3l-16.4,0.2l4.8-4.8l0.3,21.7l-5.1-5.1l16.9-0.1l16.9,0c5.6,0,11.3,0.1,16.9,0.1
			c5.6,0.1,11.3,0.2,16.9,0.3l5.3,0.1l-0.1,5.1c-0.1,7.4-0.3,14.8-0.6,22.2c-0.2,7.4-0.5,14.8-0.8,22.2l-0.2,4.2l-3.9-0.2l-16.8-0.7
			l-16.8-0.7l-16.9-0.6c-5.6-0.2-11.2-0.3-16.9-0.5l2-2l0,11.6l0.1,11.6l-1.8-1.8c5.6,0.1,11.3,0,16.9,0.1c5.6,0,11.3,0,16.9,0
			l16.9-0.1l16.9-0.3l2.6,0l0.1,2.8l0.8,44.2l0.1,3.9l-4.1,0.1c-9.3,0.2-18.5,0.4-27.8,0.6c-9.3,0.2-18.5,0.2-27.8,0.3l-55.7,0.8
			l-6,0.1l-0.1-6.1c-0.1-14.8-0.4-29.7-0.4-44.5c-0.1-14.8-0.1-29.7,0-44.5c0.1-14.8,0.3-29.7,0.5-44.5l0.4-22.3l0.5-22.3l0.1-5
			l4.7,0.1l13.7,0.4l13.7,0.5l13.7,0.5l13.7,0.5c9.5,0.4,19,0.9,28.2,1.5L922.3,675.4z M921.4,676.3c-9.5,0.4-18.8,0.8-27.8,1.3
			c-9.1,0.4-17.9,0.8-26.7,1.1l-13.7,0.5l-13.7,0.4l-13.7,0.4l-13.7,0.3l4.8-4.8l0.6,22.3l0.4,22.3c0.3,14.8,0.5,29.7,0.6,44.5
			c0.1,14.8,0.2,29.7,0.2,44.5c0,14.8-0.2,29.7-0.3,44.5l-6-6l55.7,0.6c9.3,0.2,18.6,0.4,27.9,0.7c9.3,0.3,18.6,0.6,27.9,1l-4.1,4
			l1.8-44.2l2.7,2.7l-16.9-0.5l-16.9-0.4c-5.6-0.2-11.3-0.2-16.9-0.3c-5.6-0.1-11.3-0.2-16.9-0.2l-1.8,0l0-1.8l-0.2-11.6l-0.3-11.6
			l0-2l2.1,0c5.6,0,11.2-0.1,16.9-0.2l16.9-0.4l16.9-0.5l16.9-0.5l-4.1,4c-0.2-7.4-0.4-14.8-0.6-22.2c-0.2-7.4-0.3-14.8-0.4-22.2
			l5.2,5.3c-5.6,0.1-11.3,0-16.9,0c-5.6,0-11.3-0.1-16.9-0.1l-16.9-0.2l-16.9-0.3l-5.1-0.1l0.1-5l0.3-21.7l0.1-4.9l4.7,0.2l16.4,0.5
			l16.4,0.6c5.5,0.2,10.9,0.4,16.4,0.7l16.4,0.8l-2.9,2.9c0.2-3.5,0.4-7.1,0.6-10.7c0.2-3.6,0.4-7.2,0.7-10.8l0.7-11.1L921.4,676.3z
			"/>
	</g>
</g>
<g>
	<linearGradient id="SVGID_5_" gradientUnits="userSpaceOnUse" x1="363.3449" y1="968.6917" x2="506.6544" y2="968.6917">
		<stop  offset="0" style="stop-color:#ED1C24"/>
		<stop  offset="2.159472e-02" style="stop-color:#EC2326"/>
		<stop  offset="0.1882" style="stop-color:#E55134"/>
		<stop  offset="0.3362" style="stop-color:#DF723E"/>
		<stop  offset="0.4586" style="stop-color:#DC8744"/>
		<stop  offset="0.5403" style="stop-color:#DB8E46"/>
		<stop  offset="1" style="stop-color:#C9403D"/>
	</linearGradient>
	<path class="st4" d="M499.9,913.6c2.1,4.9,3.7,9.9,4.6,14.9c0.9,5,1.5,10,1.9,14.8c0.3,4.9,0.4,9.6,0.2,14.3
		c-0.2,4.7-0.3,9.2-0.5,13.5c-0.3,5.8-0.7,11.9-1.2,18.5c-0.5,6.6-1.5,13.2-3,19.8c-1.5,6.6-3.7,12.9-6.7,19
		c-3,6.1-7,11.5-12.1,16.3c-5.1,4.8-11.5,8.6-19.3,11.4c-7.7,2.8-17.1,4.2-28.2,4.2c-16.3,0-29.2-2.7-38.8-8
		c-9.5-5.3-16.8-12.3-21.9-21c-5-8.6-8.2-18.5-9.6-29.5c-1.4-11-2.1-22.4-2.1-34.1c0-12.2,1.2-23.7,3.5-34.7
		c2.3-10.9,6.4-20.6,12.2-28.9c5.8-8.3,13.6-14.9,23.3-19.8c9.7-4.9,22-7.3,36.8-7.3c8.6,0,16.1,0.9,22.6,2.8
		c6.5,1.9,12.2,4.4,17.2,7.7c4.9,3.2,9.1,7.1,12.5,11.6C494.8,903.7,497.6,908.5,499.9,913.6z M461.9,963c0.3-5.4,0.5-10.7,0.5-15.7
		c0-5-0.7-9.5-2.1-13.3c-1.4-3.9-3.7-6.9-7-9.1c-3.3-2.2-8-3.3-14.1-3.3c-7.2,0-12.9,1.1-17,3.2c-4.1,2.1-7.2,5.2-9.3,9.1
		c-2.1,4-3.4,8.8-4,14.6c-0.6,5.8-0.9,12.2-0.9,19.3c0,8.2,0.1,15.4,0.2,21.5c0.2,6.1,1.1,11.1,2.8,15.1s4.4,6.9,8.1,8.8
		c3.7,1.9,9.2,2.8,16.4,2.8c6.6,0,11.6-1.9,15.2-5.7c3.5-3.8,6.1-8.4,7.7-13.8c1.6-5.4,2.5-11.2,2.7-17.3
		C461.5,973,461.7,967.6,461.9,963z"/>
	<g>
		<path d="M500.5,913.4c1.1,2.6,2.1,5.2,2.9,7.9c0.9,2.7,1.5,5.4,2.1,8.2c1.1,5.5,2,11.1,2.5,16.7c0.6,5.6,0.8,11.3,1,16.9l0.3,8.4
			l0,8.4l0,8.4c0,2.8-0.1,5.8-0.4,8.6c-0.2,2.9-0.6,5.8-1,8.6c-0.5,2.8-1,5.7-1.7,8.6c-1.4,5.7-3.5,11.3-6.2,16.6
			c-2.7,5.5-6.4,10.5-10.7,14.8c-1.1,1.1-2.2,2.1-3.4,3.1c-1.2,1-2.4,1.9-3.7,2.8c-2.5,1.7-5.1,3.3-7.9,4.6
			c-2.7,1.3-5.5,2.3-8.3,3.2c-2.8,0.9-5.7,1.6-8.6,2.1c-5.8,1-11.5,1.3-17.2,1.3c-2.9,0-5.7-0.1-8.5-0.3c-2.8-0.1-5.7-0.4-8.5-0.7
			c-5.6-0.7-11.3-1.7-16.8-3.4c-2.7-0.9-5.4-1.9-8.1-3.1c-2.6-1.3-5.1-2.7-7.5-4.2c-4.8-3.1-9.3-6.9-13.2-11.3
			c-1.9-2.2-3.7-4.6-5.3-7c-1.6-2.5-3-5-4.3-7.6c-2.6-5.3-4.5-10.8-5.9-16.5c-1.4-5.8-2.1-11.3-2.9-17c-0.7-5.6-1.1-11.3-1.4-17
			c-0.3-5.7-0.4-11.4-0.2-17.2c0.2-5.8,0.7-11.5,1.5-17.3c0.4-2.9,0.9-5.7,1.4-8.6c0.6-2.9,1.3-5.8,2.1-8.7
			c1.7-5.8,4.1-11.4,7.1-16.7c3-5.2,6.7-10.3,11.2-14.6c4.4-4.3,9.4-8,14.8-10.9c1.3-0.7,2.7-1.4,4.1-2.1c1.4-0.7,2.8-1.3,4.3-1.8
			c2.9-1.1,5.8-1.9,8.7-2.6c5.9-1.3,11.8-1.9,17.6-2c5.8,0,11.6,0.3,17.4,1.2c5.8,0.9,11.5,2.4,16.9,4.6c5.4,2.2,10.5,5,15.1,8.4
			c4.6,3.4,8.7,7.6,11.9,12.2c1.6,2.3,3.1,4.7,4.5,7.1C498,908.3,499.3,910.8,500.5,913.4z M499.4,913.9c-1.2-2.5-2.5-5-3.9-7.3
			c-1.5-2.3-3-4.6-4.7-6.8c-3.4-4.3-7.6-7.9-12.3-10.6c-2.3-1.4-4.8-2.5-7.3-3.5c-2.5-1-5.1-1.7-7.7-2.4c-5.2-1.3-10.5-1.8-15.9-1.9
			c-5.3-0.1-10.7,0.4-16.1,1c-2.6,0.3-5.3,0.7-7.8,1.3c-2.6,0.5-5.1,1.1-7.6,1.8c-2.5,0.7-4.9,1.6-7.2,2.6c-1.2,0.5-2.3,1-3.4,1.6
			c-1.1,0.6-2.2,1.2-3.3,1.8c-4.4,2.6-8.4,5.6-11.9,9.2c-1.7,1.8-3.4,3.6-4.9,5.6c-1.5,2-2.9,4.1-4.2,6.3c-2.6,4.4-4.6,9.1-6.3,14
			c-0.8,2.4-1.5,4.9-2.1,7.5c-0.6,2.6-1.1,5.2-1.6,7.9c-0.9,5.3-1.6,10.6-2,16c-0.4,5.4-0.5,10.8-0.5,16.3c0,5.5,0.2,11,0.4,16.4
			c0.1,2.7,0.3,5.5,0.5,8.2c0.2,2.8,0.4,5.4,0.8,8c0.7,5.3,2,10.5,3.9,15.5c0.9,2.5,2,4.9,3.2,7.3c1.2,2.4,2.6,4.6,4.2,6.7
			c1.6,2.1,3.4,4.1,5.3,6c1.9,1.9,4,3.6,6.2,5.1c4.4,3.2,9.2,5.6,14.4,7.2c5.2,1.6,10.6,2.5,16.1,3c10.9,0.8,22.1,0.1,32.4-2.9
			c2.6-0.7,5-1.6,7.4-2.7c2.4-1.1,4.7-2.3,7-3.7c2.2-1.4,4.3-2.8,6.2-4.5c1-0.8,1.9-1.7,2.8-2.6c0.9-0.9,1.8-1.8,2.6-2.8
			c3.4-3.8,6.1-8.1,8.3-12.6c2.2-4.7,4.1-9.6,5.5-14.7c0.7-2.5,1.4-5.1,1.9-7.7c0.6-2.6,1.1-5.3,1.6-7.9c0.5-2.7,0.9-5.3,1.2-8
			l1.1-8.3l1.2-8.3l0.9-8.3c0.3-2.8,0.6-5.6,0.9-8.3c0.2-2.7,0.3-5.5,0.4-8.3c0.1-5.5-0.3-11.1-1.1-16.6c-0.4-2.7-1-5.4-1.7-8.1
			C501.4,919,500.4,916.4,499.4,913.9z"/>
		<path d="M461.3,963c0.2-5.3,0-10.5-0.4-15.8c-0.3-2.6-0.9-5.1-1.7-7.4c-0.8-2.3-1.9-4.6-3.2-6.3c-1.3-1.7-2.8-3-4.5-4.1
			c-0.9-0.5-1.6-0.9-2.5-1.2c-0.9-0.3-1.8-0.6-2.8-0.8c-2-0.4-4.3-0.6-6.6-0.6c-2.4-0.1-4.8-0.1-7.2,0c-2.3,0.1-4.6,0.4-6.7,0.9
			c-0.5,0.1-1,0.3-1.5,0.4c-0.5,0.2-1,0.4-1.6,0.6c-1,0.5-2,1-2.9,1.6c-1.9,1.3-3.5,2.9-4.7,5c-1.3,2.1-2.2,4.4-2.9,6.8
			c-0.7,2.4-1.1,4.9-1.3,7.5c-0.2,2.6-0.3,5.2-0.3,7.8c0,2.6,0.1,5.2,0.3,7.8c0.2,2.6,0.5,5.2,0.8,7.9c0.6,5.2,1.3,10.5,1.7,15.7
			c0.3,2.4,0.7,4.8,1.2,7.1c0.5,2.2,1.2,4.4,2.2,6.1c0.9,1.7,2,3,3.4,4c0.7,0.5,1.4,0.9,2.2,1.3c0.8,0.3,1.6,0.6,2.6,0.8
			c2,0.5,4.2,0.7,6.5,0.9c1.2,0.1,2.4,0.1,3.6,0.1l0.9,0l0.8,0c0.5,0,1,0,1.5-0.1c2-0.1,3.8-0.6,5.4-1.2c0.8-0.3,1.5-0.7,2.2-1.2
			c0.3-0.3,0.6-0.5,1-0.8c0.4-0.4,0.8-0.7,1.1-1.1c3-3.1,5.5-6.8,7.4-11.5c2-4.6,3.6-9.5,4.5-14.7C460.5,973.5,461,968.3,461.3,963z
			 M462.5,963c-0.2,5.3,0,10.6,0.4,15.8c0.4,5.4,0.6,10.9,0,16.6c-0.1,0.7-0.2,1.4-0.3,2.1c-0.1,0.7-0.2,1.5-0.4,2.2
			c-0.3,1.5-0.7,2.9-1.2,4.3c-0.5,1.4-1.1,2.8-1.8,4.2c-0.7,1.4-1.5,2.7-2.5,4c-0.5,0.6-0.9,1.2-1.5,1.8c-0.5,0.6-1.2,1.3-1.9,1.9
			c-1.3,1.2-2.8,2.3-4.4,3.1c-3.2,1.7-6.5,2.6-9.8,2.9c-0.8,0.1-1.6,0.1-2.4,0.2l-1.2,0l-1.1,0c-1.4,0-2.9,0-4.3-0.2
			c-2.9-0.3-5.9-0.7-9-1.6c-1.6-0.5-3.2-1.1-4.8-2c-1.5-0.8-3-1.9-4.4-3c-2.7-2.4-4.7-5.4-6-8.5c-1.3-3-1.9-6-2.3-9
			c-0.4-2.9-0.5-5.8-0.3-8.7c0.3-5.3,0.9-10.6,1.3-15.9l1.4-15.9l0.7-8c0.3-2.7,0.6-5.4,1.1-8.1c0.5-2.7,1.2-5.4,2.3-8.1
			c1-2.7,2.6-5.4,4.6-7.7c1-1.1,2.2-2.2,3.4-3.1c0.6-0.5,1.2-0.9,1.9-1.3c0.7-0.4,1.4-0.8,2.1-1.2c2.8-1.5,5.7-2.4,8.6-2.9
			c2.9-0.6,5.7-0.8,8.6-0.9c2.9,0,6,0.2,9.1,1c1.5,0.4,3.1,1,4.6,1.8c1.5,0.8,3,1.9,4.2,3c2.5,2.3,4.3,5.1,5.4,8.1
			c1.1,3.1,1.4,5.9,1.5,8.8c0.1,2.8-0.1,5.6-0.4,8.3C463.1,952.5,462.6,957.8,462.5,963z"/>
	</g>
</g>
<g>
	<linearGradient id="SVGID_6_" gradientUnits="userSpaceOnUse" x1="503.8537" y1="967.7039" x2="678.9377" y2="967.7039">
		<stop  offset="0" style="stop-color:#ED1C24"/>
		<stop  offset="2.159472e-02" style="stop-color:#EC2326"/>
		<stop  offset="0.1882" style="stop-color:#E55134"/>
		<stop  offset="0.3362" style="stop-color:#DF723E"/>
		<stop  offset="0.4586" style="stop-color:#DC8744"/>
		<stop  offset="0.5403" style="stop-color:#DB8E46"/>
		<stop  offset="1" style="stop-color:#C9403D"/>
	</linearGradient>
	<path class="st5" d="M586.3,988.4l52.6-111.1l40,19l-76.6,161.7l-37.3-1.7l-61.2-161.5l41.5-16.1L586.3,988.4z"/>
	<g>
		<path d="M586.4,987.8c4.4-10.1,8.5-19.9,12.6-29.7l11.7-28.6c3.9-9.3,7.6-18.5,11.5-27.6c3.9-9,7.9-18,12-26.9l2.2-4.7l4.8,2.2
			l20.1,9.4l10,4.8c3.3,1.6,6.6,3.2,9.9,4.9l4.8,2.4l-2.3,4.6c-3.3,6.7-6.7,13.3-10.1,20c-3.4,6.6-6.9,13.2-10.3,19.9
			c-6.9,13.2-13.9,26.4-20.6,39.7c-6.7,13.3-13.1,26.8-19.4,40.3c-3.2,6.8-6.2,13.6-9.3,20.4c-3,6.8-6,13.6-9,20.5l-0.7,1.6l-2,0
			l-37.4-0.4l-2.6,0l-1.1-2.7c-11.2-26.5-21.7-53.4-32.3-80.1l-7.9-20.1l-3.9-10l-3.9-10.1c-2.6-6.7-5.1-13.5-7.7-20.2l-7.5-20.3
			l-2.2-5.9l5.8-2.1c7-2.6,13.9-5.2,20.9-7.7l20.9-7.6l5.3-1.9l1.8,5.1c3.1,8.8,6,17.7,8.9,26.6c2.9,8.9,5.7,18,8.6,27.2
			c2.8,9.2,5.8,18.6,8.8,28.2C579.8,968.3,583,978,586.4,987.8z M586.3,989c-3.5-8.5-7.1-17-10.9-25.8l-11.7-26.7
			c-3.9-9.1-8-18.3-11.9-27.6c-3.9-9.4-7.8-18.8-11.6-28.2l7.1,3.2l-20.6,8.5c-6.9,2.8-13.7,5.6-20.6,8.3l3.6-8l7.8,20.1
			c2.5,6.7,5.2,13.4,7.7,20.2l3.8,10.1l3.7,10.1l7.4,20.3c9.8,27.1,19.7,54.1,28.9,81.4l-3.7-2.7l37.2,3.1l-2.7,1.6
			c3.4-6.6,6.8-13.3,10.1-19.9c3.3-6.7,6.7-13.3,9.9-20.1c6.5-13.4,12.8-26.9,18.9-40.6c6-13.6,11.8-27.4,17.6-41.1
			c2.9-6.9,5.8-13.7,8.8-20.6c2.9-6.9,6-13.7,9.1-20.5l2.5,7c-3.4-1.5-6.7-3.1-10.1-4.6l-10-4.7l-19.9-9.7l7-2.5
			c-4.7,9.6-9.4,19.1-14.3,28.6c-4.8,9.5-9.9,18.8-14.8,28l-14.6,27C595.3,971.9,590.7,980.6,586.3,989z"/>
	</g>
</g>
<g>
	<linearGradient id="SVGID_7_" gradientUnits="userSpaceOnUse" x1="681.8976" y1="971.9021" x2="794.0109" y2="971.9021">
		<stop  offset="0" style="stop-color:#ED1C24"/>
		<stop  offset="2.159472e-02" style="stop-color:#EC2326"/>
		<stop  offset="0.1882" style="stop-color:#E55134"/>
		<stop  offset="0.3362" style="stop-color:#DF723E"/>
		<stop  offset="0.4586" style="stop-color:#DC8744"/>
		<stop  offset="0.5403" style="stop-color:#DB8E46"/>
		<stop  offset="1" style="stop-color:#C9403D"/>
	</linearGradient>
	<path class="st6" d="M791.8,883.2l-0.2,44.5l-65.4-0.7v21.7l67.7,0.5l-0.2,44.5l-67.4-0.5l0.2,23.2l67.7,0.5l-0.5,44.2
		c-18.9-0.3-37.5-0.5-55.8-0.4c-18.3,0.1-36.8,0.1-55.6,0.1l-0.2-178c18.3,0,36.5,0,54.8,0.1C755,883,773.3,883.1,791.8,883.2z"/>
	<g>
		<path d="M792.2,882.8l1.2,21.9c0.2,3.7,0.4,7.6,0.6,11.4c0.2,3.8,0.3,7.7,0.5,11.6l0.1,2.8l-3,0.1l-16.4,0.4
			c-5.5,0.2-10.9,0.2-16.4,0.3l-16.4,0.3l-16.4,0.2l4.8-4.8l0.3,21.7l-5.1-5.1l16.9-0.1l16.9,0c5.6,0,11.3,0.1,16.9,0.1
			c5.6,0.1,11.3,0.2,16.9,0.3l5.3,0.1l-0.1,5.1c-0.1,7.4-0.3,14.8-0.6,22.2c-0.2,7.4-0.5,14.8-0.8,22.2l-0.2,4.2l-3.9-0.2l-16.8-0.7
			l-16.8-0.7l-16.9-0.6c-5.6-0.2-11.2-0.3-16.9-0.5l2-2l0,11.6l0.1,11.6l-1.8-1.8c5.6,0.1,11.3,0,16.9,0.1c5.6,0,11.3,0,16.9,0
			l16.9-0.1l16.9-0.3l2.6,0l0.1,2.8l0.8,44.2l0.1,3.9l-4.1,0.1c-9.3,0.2-18.5,0.4-27.8,0.6c-9.3,0.2-18.5,0.2-27.8,0.3l-55.7,0.8
			l-6,0.1l-0.1-6.1c-0.1-14.8-0.4-29.7-0.4-44.5c-0.1-14.8-0.1-29.7,0-44.5c0.1-14.8,0.3-29.7,0.5-44.5l0.4-22.3l0.5-22.3l0.1-5
			l4.7,0.1l13.7,0.4l13.7,0.5l13.7,0.5l13.7,0.5c9.5,0.4,19,0.9,28.2,1.5L792.2,882.8z M791.4,883.7c-9.5,0.4-18.8,0.8-27.8,1.3
			c-9.1,0.4-17.9,0.8-26.7,1.1l-13.7,0.5l-13.7,0.4l-13.7,0.4l-13.7,0.3l4.8-4.8l0.6,22.3l0.4,22.3c0.3,14.8,0.5,29.7,0.6,44.5
			c0.1,14.8,0.2,29.7,0.2,44.5c0,14.8-0.2,29.7-0.3,44.5l-6-6l55.7,0.6c9.3,0.2,18.6,0.4,27.9,0.7c9.3,0.3,18.6,0.6,27.9,1l-4.1,4
			l1.8-44.2l2.7,2.7l-16.9-0.5l-16.9-0.4c-5.6-0.2-11.3-0.2-16.9-0.3c-5.6-0.1-11.3-0.2-16.9-0.2l-1.8,0l0-1.8l-0.2-11.6l-0.3-11.6
			l0-2l2.1,0c5.6,0,11.2-0.1,16.9-0.2l16.9-0.4l16.9-0.5l16.9-0.5l-4.1,4c-0.2-7.4-0.4-14.8-0.6-22.2c-0.2-7.4-0.3-14.8-0.4-22.2
			l5.2,5.3c-5.6,0.1-11.3,0-16.9,0c-5.6,0-11.3-0.1-16.9-0.1l-16.9-0.2l-16.9-0.3l-5.1-0.1l0.1-5l0.3-21.7l0.1-4.9l4.7,0.2l16.4,0.5
			l16.4,0.6c5.5,0.2,10.9,0.4,16.4,0.7l16.4,0.8l-2.9,2.9c0.2-3.5,0.4-7.1,0.6-10.7c0.2-3.6,0.4-7.2,0.7-10.8l0.7-11.1L791.4,883.7z
			"/>
	</g>
</g>
<g>
	<linearGradient id="SVGID_8_" gradientUnits="userSpaceOnUse" x1="805.1223" y1="967.4974" x2="940.6955" y2="967.4974">
		<stop  offset="0" style="stop-color:#ED1C24"/>
		<stop  offset="2.159472e-02" style="stop-color:#EC2326"/>
		<stop  offset="0.1882" style="stop-color:#E55134"/>
		<stop  offset="0.3362" style="stop-color:#DF723E"/>
		<stop  offset="0.4586" style="stop-color:#DC8744"/>
		<stop  offset="0.5403" style="stop-color:#DB8E46"/>
		<stop  offset="1" style="stop-color:#C9403D"/>
	</linearGradient>
	<path class="st7" d="M889.8,985.5l50.9,36.8l-26.2,35.8l-60.5-43.7l1.2,39.8l-44.2,1.2c-1-30-1.9-59.6-2.8-88.9
		c-0.9-29.3-1.9-58.9-3.1-88.7c10.4-0.3,21.1-0.6,32.2-0.9c11.1-0.2,21.8,0.6,32,2.5c10.2,1.9,19.4,5.4,27.7,10.4
		c8.2,5,14.7,12.6,19.5,22.6c3.1,6.9,4.6,13.9,4.6,20.9c-0.1,7-1.4,13.7-4.1,20.1c-2.6,6.4-6.3,12.4-11,17.9
		C901.3,976.8,895.9,981.5,889.8,985.5z M851.3,921.5l1,32.8c3.8-1,7.4-2.4,10.7-4.3c3.4-1.9,6.2-4,8.5-6.3c2.3-2.3,3.9-4.7,4.7-7.2
		c0.8-2.5,0.6-4.7-0.7-6.8c-1.3-2.1-3.9-3.8-7.8-5.3C863.9,923,858.4,922,851.3,921.5z"/>
	<g>
		<path d="M890.4,985.5c4.7,3,9.3,6,13.9,8.8l13.4,8.3c4.4,2.7,8.7,5.4,12.9,8.1c4.3,2.7,8.4,5.4,12.5,8.2l3.3,2.2l-2.4,3.5
			l-6.2,9.2l-6.3,9.1l-6.4,9.1l-6.4,9.1l-2.9,4.1l-4.3-3c-5.1-3.6-10.2-7.2-15.2-10.8c-2.5-1.8-5.1-3.6-7.6-5.4
			c-2.5-1.8-5-3.6-7.5-5.5c-5-3.7-10-7.4-14.9-11.2c-4.9-3.8-9.8-7.6-14.7-11.5l6.9-3.6l-0.3,19.9c-0.1,6.6-0.2,13.3-0.2,19.9l0,2.7
			l-2.5,0c-7.4-0.1-14.7-0.1-22.1,0c-3.7,0.1-7.4,0.1-11.1,0.2c-3.7,0.1-7.4,0.2-11.1,0.3l-1.8,0.1l-0.1-1.8
			c-0.2-7.4-0.6-14.8-1-22.2c-0.3-7.4-0.8-14.8-1.3-22.2l-3.1-44.3c-1.1-14.8-1.9-29.6-2.7-44.3l-2.2-44.3l-0.3-6.2l6.3-0.3
			l13.1-0.5l13.1-0.4l6.6-0.2c2.3,0,4.5,0,6.8,0c4.5,0.1,9.1,0.4,13.6,0.9c4.5,0.5,9,1.2,13.5,2.1c4.6,1,9.1,2.3,13.4,3.9
			c4.4,1.7,8.6,3.7,12.6,6.1c2,1.2,4.1,2.5,6,4c1.9,1.5,3.8,3.1,5.5,4.9c3.4,3.5,6.2,7.4,8.6,11.5c1.2,2.1,2.2,4.1,3.2,6.3
			c1,2.3,1.7,4.4,2.4,6.7c1.3,4.6,2,9.3,2,14.1c0,4.8-0.6,9.4-1.8,13.9c-1.2,4.5-2.9,8.8-5.1,12.9c-2.1,4-4.7,7.8-7.6,11.3
			c-2.9,3.5-6.1,6.6-9.5,9.5c-1.7,1.4-3.5,2.8-5.3,4c-0.9,0.6-1.9,1.2-2.8,1.8l-1.4,0.8c-0.3,0.2-0.4,0.2-0.5,0.2
			C890.9,985.4,890.7,985.4,890.4,985.5z M889.2,985.5c0.2-0.2,0.4-0.5,0.7-0.8c0.3-0.3,0.7-0.5,0.8-0.7l1.3-1
			c0.8-0.7,1.6-1.4,2.4-2.1c1.6-1.5,3.1-2.9,4.6-4.5c2.9-3.1,5.6-6.5,7.9-10c4.6-7.1,8-14.9,9.3-22.9c0.7-4,0.9-8.1,0.6-12.1
			c-0.3-4-1.2-7.8-2.5-11.6c-0.7-1.8-1.5-3.8-2.3-5.5c-0.9-1.7-1.9-3.5-3-5.2c-2.2-3.4-4.7-6.4-7.5-9c-1.4-1.3-2.9-2.5-4.5-3.6
			c-1.6-1.1-3.2-2.1-5-3c-3.6-1.9-7.3-3.5-11.1-4.8c-3.8-1.3-7.8-2.3-11.8-3c-4.1-0.7-8.2-1.3-12.4-1.7c-4.2-0.4-8.3-0.6-12.5-0.7
			c-2.1,0-4.2,0-6.3,0l-6.5,0.2l-13.1,0.3l-13.1,0.2l6-6.4l0.9,44.4c0.3,14.8,0.5,29.6,0.4,44.4l-0.3,44.4c0,7.4,0,14.8,0.1,22.2
			c0.1,7.4,0.2,14.8,0.4,22.2l-1.9-1.8c3.7-0.1,7.4-0.2,11.1-0.3c3.7-0.1,7.4-0.3,11-0.4c7.4-0.3,14.7-0.7,22.1-1.2l-2.5,2.6
			c-0.5-6.6-0.9-13.2-1.5-19.9l-1.5-19.9l-0.7-8.7l7.5,5c5.2,3.5,10.4,6.9,15.5,10.4c5.1,3.5,10.3,7,15.3,10.6
			c2.5,1.8,5.1,3.6,7.6,5.4c2.5,1.8,5,3.6,7.5,5.5c5,3.7,10,7.4,15,11.1l-7.2,1.1l6.7-8.8l6.7-8.8l6.8-8.8l6.9-8.7l0.9,5.7
			c-4.4-3.4-8.7-6.8-12.9-10.2c-4.2-3.4-8.5-6.9-12.5-10.3l-12-10.1L889.2,985.5z"/>
		<path d="M851.7,922c0.6,1.9,1.1,3.7,1.6,5.3c0.5,1.6,0.9,3.2,1.4,4.6c0.8,2.9,1.5,5.5,1.9,8c0.2,1.2,0.4,2.4,0.5,3.6
			c0.1,1.2,0,2.3-0.2,3.5c-0.4,2.3-1.4,4.7-2,7.3l-3.2-2.4c5.3,0.1,10.1-2.9,13.2-7c1.6-2,2.9-4.1,4-5.9c0.5-0.9,1-1.8,1.3-2.6
			c0.1-0.4,0.3-0.8,0.3-1.2c0.1-0.4,0.1-0.7,0.1-0.9c-0.1-0.5-0.2-0.5-0.3-0.6l-0.2-0.3c0-0.1-0.2-0.2-0.3-0.4
			c-0.7-0.9-2.6-2.2-4.5-3.4c-1.9-1.1-4.2-2.2-6.5-3.4c-1.2-0.6-2.4-1.2-3.7-1.8c-0.6-0.3-1.2-0.7-1.9-1c-0.3-0.2-0.8-0.3-0.7-0.5
			C852.3,922.5,852.1,922.2,851.7,922z M850.9,921.1c0.3-0.2,0.7-0.4,1.3-0.6c0.7-0.2,0.9-0.2,1.3-0.4c0.7-0.2,1.4-0.4,2.1-0.6
			c1.4-0.4,2.9-0.6,4.3-0.8c2.9-0.3,5.9-0.3,9.1,0.3c0.8,0.2,1.6,0.3,2.3,0.6c0.8,0.2,1.6,0.5,2.3,0.8c1.6,0.7,3.2,1.5,4.8,2.9
			c0.8,0.7,1.6,1.5,2.3,2.6c0.7,1,1.2,2.1,1.6,3.3c0.8,2.4,0.8,5.1,0.2,7.3c-0.3,1.1-0.7,2.1-1.1,2.9c-0.4,0.8-0.9,1.6-1.4,2.4
			c-1,1.5-2.1,2.8-3.3,3.9c-2.4,2.2-5.2,3.6-8,4.7c-5.7,2-10.7,3.6-15.8,6.4l-2.2,1.2l-1-3.7c-0.8-2.9-1.9-5.9-2.5-9.1
			c-0.3-1.6-0.5-3.2-0.5-4.8c0-1.6,0.1-3.1,0.2-4.6c0.3-3,0.8-5.9,1.4-8.4c0.3-1.3,0.7-2.5,1.1-3.6
			C849.9,922.9,850.3,921.9,850.9,921.1z"/>
	</g>
</g>
<linearGradient id="SVGID_9_" gradientUnits="userSpaceOnUse" x1="359.2067" y1="805.4167" x2="492.9528" y2="805.4167">
	<stop  offset="0" style="stop-color:#FBF250"/>
	<stop  offset="3.509879e-02" style="stop-color:#F8E748"/>
	<stop  offset="0.1137" style="stop-color:#F2D43B"/>
	<stop  offset="0.1946" style="stop-color:#EFC934"/>
	<stop  offset="0.2809" style="stop-color:#EEC531"/>
	<stop  offset="0.6685" style="stop-color:#DB8E46"/>
	<stop  offset="0.8876" style="stop-color:#D06841"/>
	<stop  offset="1" style="stop-color:#C9403D"/>
</linearGradient>
<path class="st8" d="M361,796.7c0,0-5.3-26.7,2.3-41c0,0,10.3,20.3,12,48.3c0,0,10.3-4.8,8.5-24.2c0,0,10.3,5,13.5,25.3
	c0,0,0.5-7.5,3.5-11.7c0,0,17.7,35.3,48.3,3.5c0,0,8.3-0.5,2.5-15.3c0,0,18-1.3,15.7,31.2c0,0,3.8-17,15.2-19.7c0,0-2.8,16.2,0,21
	c0,0,12.3-18.5,6-34c0,0,8,3.2,2.6,23.7l-4.4,15.8l-12.8,16.8l-11.7,9.5l-12.7,4l-23.4,5.2l-20.7-5.8c0,0-8.3-3.8-9.2-3.8
	c-0.8,0-14.6-8.8-16-8.7c-1.4,0.1-12-13.1-12.4-13.8C367.3,822.3,358.7,803.2,361,796.7z"/>
<linearGradient id="SVGID_10_" gradientUnits="userSpaceOnUse" x1="494.8747" y1="799.4303" x2="636.9056" y2="799.4303">
	<stop  offset="0" style="stop-color:#FBF250"/>
	<stop  offset="3.509879e-02" style="stop-color:#F8E748"/>
	<stop  offset="0.1137" style="stop-color:#F2D43B"/>
	<stop  offset="0.1946" style="stop-color:#EFC934"/>
	<stop  offset="0.2809" style="stop-color:#EEC531"/>
	<stop  offset="0.6685" style="stop-color:#DB8E46"/>
	<stop  offset="0.8876" style="stop-color:#D06841"/>
	<stop  offset="1" style="stop-color:#C9403D"/>
</linearGradient>
<path class="st9" d="M520,767.1c0,0,11.3-19.8,22.3-24.6c0,0-7.5,26,0,36c0,0,7.3-1.5,8.8-20.8c0,0,7,7.9,7.6,17.5l0.4,10.2l8.8,2.3
	l5-1.2l1.6-8c0,0-1.4-18.3,7.1-25.5c0,0,0,37,9.9,41.3c0,0,10.6-12.3,5.4-30.3c0,0,17.5,8.5,24,30.3l16.2,45.5l-39.4,13.5L586.3,828
	c0,0-42.3,0.5-42,2.3s-4.3,26.1-4.3,26.1l-45.1-16.9L520,767.1z"/>
<linearGradient id="SVGID_11_" gradientUnits="userSpaceOnUse" x1="642.5451" y1="792.8527" x2="688.8751" y2="792.8527">
	<stop  offset="0" style="stop-color:#FBF250"/>
	<stop  offset="3.509879e-02" style="stop-color:#F8E748"/>
	<stop  offset="0.1137" style="stop-color:#F2D43B"/>
	<stop  offset="0.1946" style="stop-color:#EFC934"/>
	<stop  offset="0.2809" style="stop-color:#EEC531"/>
	<stop  offset="0.6685" style="stop-color:#DB8E46"/>
	<stop  offset="0.8876" style="stop-color:#D06841"/>
	<stop  offset="1" style="stop-color:#C9403D"/>
</linearGradient>
<path class="st10" d="M647.5,760c0,0,1-15.8,6.8-23c0,0,2.5,36.7,10,49.7c0,0,5.8-13,5-24.9c0,0,7.9,14.4,9.7,27.4
	c0,0,0.8-19.8,4.8-22.2l2.5,7l2.6-13.1l-2.1,45.2l0.2,42.5h-44.4C642.5,848.7,642.8,763.5,647.5,760z"/>
<linearGradient id="SVGID_12_" gradientUnits="userSpaceOnUse" x1="698.1119" y1="773.8044" x2="748" y2="773.8044">
	<stop  offset="0" style="stop-color:#FBF250"/>
	<stop  offset="3.509879e-02" style="stop-color:#F8E748"/>
	<stop  offset="0.1137" style="stop-color:#F2D43B"/>
	<stop  offset="0.1946" style="stop-color:#EFC934"/>
	<stop  offset="0.2809" style="stop-color:#EEC531"/>
	<stop  offset="0.6685" style="stop-color:#DB8E46"/>
	<stop  offset="0.8876" style="stop-color:#D06841"/>
	<stop  offset="1" style="stop-color:#C9403D"/>
</linearGradient>
<path class="st11" d="M698.1,769.8c0,0,0.4-20.3,16.6-29.8c0,0-3.4,31.7,6.8,44.8c0,0,5.4-12.5,2.2-25c0,0,10,8.8,9.3,17.5
	c0,0,2.3-23.5,15-34.8c0,0-4.8,19.7,0,28.6l-22.3,36.5L698.1,769.8z"/>
<linearGradient id="SVGID_13_" gradientUnits="userSpaceOnUse" x1="755.75" y1="796.875" x2="800.5895" y2="796.875">
	<stop  offset="0" style="stop-color:#FBF250"/>
	<stop  offset="3.509879e-02" style="stop-color:#F8E748"/>
	<stop  offset="0.1137" style="stop-color:#F2D43B"/>
	<stop  offset="0.1946" style="stop-color:#EFC934"/>
	<stop  offset="0.2809" style="stop-color:#EEC531"/>
	<stop  offset="0.6685" style="stop-color:#DB8E46"/>
	<stop  offset="0.8876" style="stop-color:#D06841"/>
	<stop  offset="1" style="stop-color:#C9403D"/>
</linearGradient>
<path class="st12" d="M759,798c0,0,15.3-14.5,14.8-33.5c0,0,5.5,7,4.5,33.5c0,0,16-37.5,5-59.3c0,0,17.2,11.5,17.3,64.3l-3.1,48.2
	l-41.8,3.8L759,798z"/>
<linearGradient id="SVGID_14_" gradientUnits="userSpaceOnUse" x1="806.5" y1="801.3221" x2="924.0612" y2="801.3221">
	<stop  offset="0" style="stop-color:#FBF250"/>
	<stop  offset="3.509879e-02" style="stop-color:#F8E748"/>
	<stop  offset="0.1137" style="stop-color:#F2D43B"/>
	<stop  offset="0.1946" style="stop-color:#EFC934"/>
	<stop  offset="0.2809" style="stop-color:#EEC531"/>
	<stop  offset="0.6685" style="stop-color:#DB8E46"/>
	<stop  offset="0.8876" style="stop-color:#D06841"/>
	<stop  offset="1" style="stop-color:#C9403D"/>
</linearGradient>
<path class="st13" d="M815.5,789.5c0,0-0.8-31,10-40.5c0,0-2.3,26.9,2,37.7c0,0,0.8-19.7,20.3-33.7c0,0-6,22,0,35.3
	c0,0,11.8-9.2,11-26.7c0,0,14.8,11.4,12.8,24.3l-16-0.6l0.9,23.7l67.7,0.5l-0.5,44.2H806.5L815.5,789.5z"/>
<linearGradient id="SVGID_15_" gradientUnits="userSpaceOnUse" x1="364.7874" y1="1002.4875" x2="506.6683" y2="1002.4875">
	<stop  offset="0" style="stop-color:#FBF250"/>
	<stop  offset="3.509879e-02" style="stop-color:#F8E748"/>
	<stop  offset="0.1137" style="stop-color:#F2D43B"/>
	<stop  offset="0.1946" style="stop-color:#EFC934"/>
	<stop  offset="0.2809" style="stop-color:#EEC531"/>
	<stop  offset="0.6685" style="stop-color:#DB8E46"/>
	<stop  offset="0.8876" style="stop-color:#D06841"/>
	<stop  offset="1" style="stop-color:#C9403D"/>
</linearGradient>
<path class="st14" d="M364.8,996c0,0,7.2-21.5,22.7-34c0,0-13.2,25,3.2,53.9c0,0,9.6-24,2.3-38.2c0,0,15.3,9.2,17.3,24.5l3.1,6.1
	c0,0,15.9,7.4,16.9,7.5c1,0.1,13.5-1,13.5-1l8.1-5.6c0,0,2.9-3.9,3.4-4.9s2.1-4.3,2.5-5.5c0.4-1.3,3.8-12.6,13.2-19.2
	c0,0-0.7,31,2,39c0,0,29.3-47,11.7-73.7c0,0,22.6,7.3,22,47.7l-9.8,41.3l-13.7,11.1l-18.8,13.3h-15l-23.3,2.2l-12-2l-17.1-6.1
	l-16-12.9l-9.3-14.9L364.8,996z"/>
<linearGradient id="SVGID_16_" gradientUnits="userSpaceOnUse" x1="531.4782" y1="998.5428" x2="643.0906" y2="998.5428">
	<stop  offset="0" style="stop-color:#FBF250"/>
	<stop  offset="3.509879e-02" style="stop-color:#F8E748"/>
	<stop  offset="0.1137" style="stop-color:#F2D43B"/>
	<stop  offset="0.1946" style="stop-color:#EFC934"/>
	<stop  offset="0.2809" style="stop-color:#EEC531"/>
	<stop  offset="0.6685" style="stop-color:#DB8E46"/>
	<stop  offset="0.8876" style="stop-color:#D06841"/>
	<stop  offset="1" style="stop-color:#C9403D"/>
</linearGradient>
<path class="st15" d="M531.5,967.7c0,0,0.9-15.7,8.2-23c0,0,10,46.7,15.3,50c0,0,4.7-17,0-30c0,0,26,28.7,25.7,54.3
	c0,0,5.8-20.7,10.7-24c0,0,9.6,14.7,6.6,28c0,0,20.7-35.7,11-59.3c0,0,15.4,11,14.7,31c0,0,14-31.3,4.3-55.7c0,0,14.8,8.5,15.1,33.1
	l-40.7,86H563L531.5,967.7z"/>
<linearGradient id="SVGID_17_" gradientUnits="userSpaceOnUse" x1="681.8976" y1="1011" x2="794.0109" y2="1011">
	<stop  offset="0" style="stop-color:#FBF250"/>
	<stop  offset="3.509879e-02" style="stop-color:#F8E748"/>
	<stop  offset="0.1137" style="stop-color:#F2D43B"/>
	<stop  offset="0.1946" style="stop-color:#EFC934"/>
	<stop  offset="0.2809" style="stop-color:#EEC531"/>
	<stop  offset="0.6685" style="stop-color:#DB8E46"/>
	<stop  offset="0.8876" style="stop-color:#D06841"/>
	<stop  offset="1" style="stop-color:#C9403D"/>
</linearGradient>
<path class="st16" d="M685.3,979.7c0,0,3.3-14.7,17.3-20.3c0,0-8.7,50,0,62.7c0,0,11.3-15.7,7.7-27.7c0,0,6.7,5.7,8.7,23.7
	c0,0,6.2-4.7,7.1-23.7l0.2,22l67.7,0.5l-3.7,45.8l-108.4-2.4L685.3,979.7z"/>
<linearGradient id="SVGID_18_" gradientUnits="userSpaceOnUse" x1="811.049" y1="1001.0245" x2="940.6955" y2="1001.0245">
	<stop  offset="0" style="stop-color:#FBF250"/>
	<stop  offset="3.509879e-02" style="stop-color:#F8E748"/>
	<stop  offset="0.1137" style="stop-color:#F2D43B"/>
	<stop  offset="0.1946" style="stop-color:#EFC934"/>
	<stop  offset="0.2809" style="stop-color:#EEC531"/>
	<stop  offset="0.6685" style="stop-color:#DB8E46"/>
	<stop  offset="0.8876" style="stop-color:#D06841"/>
	<stop  offset="1" style="stop-color:#C9403D"/>
</linearGradient>
<path class="st17" d="M811.9,968.7c0,0,6.1-22.7,15.4-27.7c0,0,1,44.3,9.3,55c0,0-0.7-18.5,5.7-24.1c0,0,5.9,22.4,9,23.1
	c0,0,13.4-8.7,12.7-30.3c0,0,13,21,14.3,37.8c0,0,12.6-26.6,3.3-43.2c0,0,19.9,5.3,17.9,18.6l-9.8,7.6l50.9,36.8L914,1061l-60-48.4
	l1.3,41.5l-44.2,1.2L811.9,968.7z"/>
<g>
	<g>
		<path d="M452.2,742.9c-0.1-0.2-0.1-0.4-0.2-0.7c0-0.1,0-0.2,0-0.4l0-0.2l-0.1-0.8l-0.1-1.6c-0.1-1-0.2-2.1-0.4-3.1
			c-0.3-2.1-0.7-4.1-1.3-6.1c-0.6-2-1.2-4-2-5.8c-0.8-1.8-1.8-3.6-3-5.1c-1.2-1.5-2.5-2.9-4.1-4c-0.8-0.5-1.6-1.1-2.4-1.5
			c-0.8-0.4-1.6-0.6-2.5-0.8c-1.8-0.4-3.6-0.4-5.6-0.2c-2.1,0.2-4.1,0.4-6.1,0.8c-4,0.7-7.9,1.7-11.1,3.5c-1.6,0.9-3,2-4.2,3.2
			c-0.6,0.6-1.1,1.3-1.5,2c-0.2,0.3-0.4,0.7-0.7,1.2c-0.2,0.4-0.4,0.8-0.6,1.3c-3.2,6.8-3.9,15.1-4,23.3c0,4.1,0,8.3,0.3,12.4
			c0.3,4.2,0.6,8.4,1.1,12.5c0.2,2.1,0.4,4.2,0.7,6.3c0.2,2.1,0.5,3.9,0.9,5.9c0.8,3.8,2,7.5,3.6,10.8c0.5,0.9,0.8,1.5,1.2,2.1
			c0.4,0.6,0.9,1.2,1.5,1.8c0.5,0.6,1.2,1.1,1.8,1.6c0.3,0.2,0.7,0.5,1,0.7c0.4,0.2,0.7,0.5,1,0.6c2.4,1.3,6,1.8,9.7,1.7
			c3.7-0.1,7.6-0.7,10.4-1.9c0.4-0.2,0.7-0.3,1-0.5c0.3-0.2,0.6-0.4,1-0.6c0.6-0.4,1.2-0.9,1.8-1.4c1.1-1,1.9-2.2,2.6-3.5l4.5,7.6
			c-4.9-0.3-9.8-0.7-14.7-1l-14.7-1.1l-5.1-0.4l0.4-4.9l1.9-21.9l2.1-21.9l0.4-3.8l3.5,0.3l37.7,3.6c6.3,0.6,12.6,1.1,18.8,1.7
			c6.3,0.7,12.6,0.8,18.9,1.2l1.9,0.1l-0.1,1.9c-0.2,2.7-0.3,5.4-0.4,8.1l-0.2,8.2c-0.1,5.5-0.6,11.1-1.4,16.5
			c-0.4,2.7-0.9,5.5-1.5,8.2c-0.6,2.7-1.2,5.4-2,8.1c-1.5,5.4-3.7,10.6-6.3,15.6c-2.6,5-5.9,9.7-9.8,13.9
			c-3.9,4.2-8.3,7.8-13.1,10.9c-4.8,3.1-10.3,5.5-15.8,7c-5.5,1.6-11.2,2.4-16.9,2.8c-5.6,0.4-11.3,0.5-17.1-0.1
			c-2.9-0.3-5.8-0.7-8.6-1.4c-2.8-0.6-5.6-1.4-8.4-2.4c-5.5-1.9-10.9-4.6-15.8-8.1c-2.4-1.7-4.7-3.7-6.9-5.8c-1.1-1-2.1-2.1-3.1-3.3
			c-1-1.1-1.9-2.2-2.8-3.4c-1.8-2.3-3.5-4.7-5-7.3c-0.8-1.3-1.5-2.6-2.2-3.8c-0.7-1.3-1.3-2.5-1.9-3.8c-2.5-5.2-4.6-10.7-6-16.4
			c-0.7-2.8-1.4-5.7-1.8-8.5l-0.3-2.2l-0.3-2.1l-0.5-4.1c-0.7-5.5-1.2-11.1-1.6-16.6c-0.2-2.8-0.4-5.6-0.4-8.4
			c-0.1-2.8-0.1-5.6-0.1-8.4c0.1-5.6,0.4-11.3,1-16.9c0.3-2.8,0.7-5.6,1.2-8.5c0.5-2.9,1.1-5.7,1.8-8.6c1.5-5.7,3.6-11.2,6.2-16.5
			c5.3-10.7,13.4-20.1,23.2-26.9c2.5-1.7,5-3.2,7.7-4.6c2.7-1.4,5.5-2.6,8.3-3.6c5.6-2,11.4-3.2,17.1-4c5.7-0.8,11.4-1.1,17.1-1.1
			c5.8,0,11.6,0.5,17.4,1.8c2.9,0.7,5.8,1.5,8.6,2.6c1.4,0.5,2.8,1.2,4.1,1.9c1.3,0.7,2.6,1.3,3.9,2.1c5.1,2.9,9.9,6.5,14,10.8
			c2.1,2.2,3.9,4.5,5.6,6.8c1.7,2.4,3.2,4.9,4.6,7.5c1.4,2.6,2.5,5.3,3.5,8c0.9,2.7,1.8,5.3,2.6,8c1.6,5.4,2.7,11,3.4,16.6
			c0.6,5.6,0.8,11.2,0.7,16.7l0,2.8l-2.6-0.1c-7.7-0.4-15.3-0.9-22.7-1.4L452.2,742.9z M453.1,742.1c7.6-0.2,15.1-0.5,22.3-0.8
			c7.3-0.3,14.4-0.5,21.5-0.7l-2.6,2.6c-0.3-5.4-0.8-10.7-1.8-15.9c-0.9-5.2-2.4-10.2-4.2-15.3c-0.9-2.5-1.8-5-2.8-7.4
			c-1-2.3-2.1-4.6-3.4-6.8c-1.3-2.2-2.7-4.3-4.3-6.3c-1.6-2-3.3-3.9-5-5.6c-3.6-3.4-7.7-6.3-12.2-8.6c-1.1-0.6-2.3-1.1-3.4-1.6
			c-1.1-0.5-2.2-0.9-3.4-1.3c-2.3-0.8-4.7-1.4-7.1-1.9c-4.9-0.9-10-1.2-15.1-1c-5.2,0.2-10.4,0.7-15.5,1.5c-5.1,0.9-10,2.1-14.7,3.9
			c-2.3,0.9-4.6,1.9-6.7,3.1c-2.1,1.2-4.3,2.5-6.3,3.9c-8.1,5.7-14.5,13.5-18.9,22.4c-2.2,4.5-4,9.2-5.3,14.1
			c-0.7,2.4-1.2,4.9-1.6,7.4c-0.4,2.6-0.8,5.2-1.1,7.8c-1.2,10.4-1.6,21-1,31.6c0.3,5.3,0.7,10.7,1.2,16l0.4,4l0.2,2l0.2,1.9
			c0.4,2.5,0.8,5,1.4,7.5c1.2,5,2.8,9.8,5,14.4c0.5,1.2,1.1,2.3,1.7,3.5c0.6,1.1,1.2,2.2,1.8,3.3c1.2,2.2,2.6,4.3,4.1,6.3
			c0.7,1,1.5,2,2.3,3c0.8,1,1.6,1.9,2.5,2.8c1.7,1.8,3.6,3.4,5.5,4.9c4,3,8.3,5.4,13,7.3c2.4,0.9,4.8,1.7,7.3,2.4
			c2.4,0.7,4.9,1.2,7.5,1.6c5.1,0.8,10.3,1,15.6,0.9c10.5-0.1,20.9-2,29.9-7.1c4.5-2.6,8.8-5.7,12.5-9.3c3.7-3.7,6.9-7.9,9.6-12.5
			c2.6-4.6,4.8-9.5,6.4-14.6c1.6-5.1,2.7-10.4,3.6-15.7c0.8-5.3,1.3-10.7,1.5-16.1c0.1-2.6,0.1-5.5,0.1-8.2c0-2.7,0.3-5.5,0.4-8.3
			l1.8,2l-9.5-0.3c-3.2,0-6.3-0.2-9.5-0.4c-6.3-0.3-12.6-0.7-18.9-0.9c-12.6-0.6-25.2-0.9-37.8-1.3l3.9-3.4l-0.6,22l-0.8,22
			l-4.6-5.2l14.7,0.6c4.9,0.2,9.8,0.4,14.7,0.7l7.9,0.4l-3.4,7.2c-1.2,2.5-2.9,4.9-4.9,6.8c-1,1-2.1,1.8-3.2,2.5
			c-0.6,0.4-1.1,0.7-1.8,1.1c-0.6,0.3-1.2,0.6-1.9,0.9c-2.5,1.1-5,1.7-7.4,2.1c-2.4,0.4-4.8,0.6-7.2,0.6c-2.4,0-4.8-0.1-7.4-0.6
			c-2.5-0.5-5.1-1.2-7.7-2.6c-0.7-0.4-1.2-0.7-1.7-1.1c-0.5-0.4-1.1-0.7-1.6-1.1c-1-0.8-2-1.7-3-2.7c-0.9-1-1.8-2-2.6-3.2
			c-0.8-1.1-1.5-2.4-1.9-3.4c-2.1-4.3-3.4-8.9-4.2-13.4c-0.4-2.3-0.7-4.6-0.9-6.8c-0.2-2.1-0.4-4.3-0.5-6.4
			c-0.3-4.3-0.5-8.6-0.7-12.9c-0.1-4.4-0.1-8.8,0.2-13.2c0.3-4.4,0.7-8.8,1.6-13.2c0.9-4.5,2.2-8.9,4.5-13.2c0.3-0.5,0.6-1,0.9-1.6
			c0.3-0.5,0.6-1,1-1.6c0.8-1.1,1.6-2,2.6-2.9c1.9-1.8,4-3.1,6.2-4.2c4.4-2.1,9-2.9,13.4-3.3c2.2-0.2,4.4-0.3,6.6-0.4
			c2.2-0.1,4.7,0.1,7.1,0.8c1.2,0.4,2.4,0.8,3.5,1.5c0.3,0.2,0.5,0.3,0.8,0.5c0.2,0.2,0.5,0.3,0.7,0.5c0.5,0.3,0.9,0.7,1.4,1.1
			c1.8,1.5,3.3,3.3,4.6,5.3c1.2,1.9,2.2,4,2.9,6.2c0.7,2.2,1.1,4.3,1.5,6.4c0.4,2.1,0.6,4.3,0.6,6.5c0,1.1,0,2.2,0,3.2l-0.1,1.6
			l0,0.8l0,0.2c0,0,0,0,0,0C453.2,742,453.1,742,453.1,742.1z"/>
	</g>
</g>
<g>
	<g>
		<path d="M543.9,678.6c3.5-0.4,7-0.8,10.7-1.2l5.5-0.6l5.6-0.6c3.7-0.4,7.5-0.8,11.3-1.1l11.5-0.9l2.6-0.2l1,2.8
			c4.8,13.3,9.3,26.6,13.7,40c2.2,6.7,4.4,13.4,6.5,20.1c2.1,6.7,4.2,13.4,6.2,20.2c3.9,13.5,7.4,27.2,10.8,40.9
			c1.7,6.8,3.4,13.7,5.2,20.5c1.7,6.8,3.6,13.6,5.6,20.4l0.5,1.9l-1.8,0.5c-3.5,1.1-7.1,2.2-10.6,3.3c-3.5,1.1-7,2.3-10.6,3.4
			c-3.5,1.2-7,2.3-10.5,3.6l-10.5,3.6l-2.1,0.7l-0.8-2.2l-4-11.1l-4.1-11.1l3.1,2.2l-22,1.5c-3.7,0.3-7.3,0.5-11,0.7l-11,0.6
			l4.7-3.6l-3.4,12.6l-3.5,12.5l-1.5,5.4l-5.6-1.6l-21.4-6.1l-21.3-6.2l-6-1.7l1.8-6.2c4.1-14,8.3-28,12.8-41.9
			c4.4-13.9,9.1-27.7,13.7-41.3l7-20.4l7.1-20.1C534.2,704.4,539,691.3,543.9,678.6z M544.6,679.5c-3.3,14.7-6.8,28.9-10.2,43
			l-5.2,21l-5.3,20.7c-3.6,13.7-7.2,27.3-11,40.8c-3.8,13.5-7.7,26.8-11.9,40.2l-4.2-7.9l21.1,6.9L539,851l-7,3.8l4-12.4l4-12.4
			l1.2-3.6l3.5,0l11,0.1c3.7,0,7.3,0.1,11,0.2l22,0.5l2.5,0.1l0.6,2.2l3.1,11.4l3.2,11.4l-2.8-1.5l10.6-3.2c3.5-1,7.1-2.2,10.6-3.2
			c3.5-1.1,7.1-2.2,10.6-3.4c3.5-1.1,7-2.3,10.5-3.5l-1.3,2.4c-2.2-6.7-4.4-13.4-6.8-20c-2.4-6.6-4.8-13.3-7.2-19.9
			c-4.9-13.2-9.7-26.5-14-39.9c-2.2-6.7-4.2-13.4-6.2-20.2c-2-6.7-4-13.5-5.9-20.3c-3.9-13.5-7.6-27.1-11.1-40.8l3.6,2.6l-10.6-0.3
			c-3.6-0.1-7.2-0.3-10.8-0.5l-5.5-0.3l-5.6-0.3L544.6,679.5z"/>
		<path d="M566.5,762.1c-0.6,3.9-0.8,7-0.8,9.7c0,2.7,0.1,4.9,0.1,6.7c0,0.9-0.1,1.7-0.4,2.4c-0.3,0.7-0.8,1.2-1.4,1.8
			c-0.6,0.6-1.3,1.3-2,2c-0.6,0.8-1.2,1.7-1.6,2.6l-1.8-2.4c1.3,0.1,2.6,0,3.9-0.3c1.3-0.3,2.6-0.8,3.9-1.3c1.3-0.5,2.6-1.1,3.9-1.5
			c1.3-0.4,2.6-0.7,3.9-0.9l-5.2,7.3c-0.8-1.6-1.6-2.9-2-4.4c-0.4-1.4-0.3-3-0.1-5.1c0.2-2,0.4-4.3,0.4-7.1
			C567.3,768.9,567.1,765.8,566.5,762.1z M566.5,760.9c0.7,0.5,1.8,1.6,3.1,2.9c1.3,1.4,2.8,3.2,4.3,5.4c1.5,2.1,2.9,4.7,3.9,7.4
			c1,2.7,1.5,5.5,2,8.1l1.5,8.2l-6.7-0.9c-1.3-0.2-2.6-0.4-4-0.8c-1.3-0.4-2.6-0.9-4-1.4c-1.3-0.5-2.6-0.9-4-1.2
			c-1.3-0.2-2.6-0.3-4-0.2l-2.4,0.2l0.6-2.6c0.3-1.1,0.4-2.4,0.4-3.7c0-1.3-0.1-2.8,0-4.3c0-1.5,0.2-3,0.6-4.5
			c0.4-1.4,0.9-2.8,1.6-3.9c1.3-2.4,2.7-4.4,4-5.9C564.7,762.4,565.8,761.2,566.5,760.9z"/>
	</g>
</g>
<g>
	<g>
		<path d="M642.1,847.9c-0.3-12.9-0.6-26-0.8-39.3l-0.3-20c-0.1-6.7-0.2-13.4-0.2-20.2c-0.1-13.5-0.2-27.2-0.1-40.9
			c0-13.7,0.1-27.4,0.3-41.1l0.1-4.3l4.3-0.7l21.8-3.6l10.9-1.8l10.9-1.7l-4.5,5.3l0-0.2l0.1-17.4l9.7,14.4
			c5.4,8.1,10.8,16.1,16.1,24.3c2.7,4.1,5.3,8.2,7.9,12.2l7.9,12.3l-7.2,0.2l18.1-27.7l9-13.9c3-4.6,6-9.3,8.9-13.9l0.9-1.4l1.5,0.3
			l21.7,4.2l10.9,2l10.9,2l1.5,0.3l0,1.5c-0.1,14.4-0.2,28.8-0.1,43.2l0.1,10.8l0.1,10.8c0.1,7.2,0.2,14.4,0.3,21.6l0.8,43.2
			c0.1,7.2,0.3,14.4,0.3,21.6c0.1,7.2,0.2,14.4,0.2,21.6l0,5.1l-5.2,0l-22.1,0.1l-22.1,0l-5.6,0l0-5.7l-0.1-46.2l0-23.1l0.1-23.1
			l12,3.4l-7.7,12.8c-2.6,4.3-5.1,8.5-7.7,12.7l-7.9,12.6l-7.9,12.6l-5.1,8.2l-5.2-8l-8.7-13.3l-8.6-13.3c-2.9-4.4-5.9-8.8-8.8-13.2
			c-3-4.4-5.9-8.8-8.8-13.2l9.3-2.8l-1,23c-0.3,7.7-0.7,15.3-1.1,23c-0.4,7.7-0.7,15.3-1.2,23l-1.3,23l-0.1,2.7l-2.5-0.2
			c-7.7-0.5-15.4-1-22.8-1.7L642.1,847.9z M643,847.1c7.6-0.1,15.1-0.3,22.5-0.5c7.3-0.2,14.5-0.3,21.6-0.4l-2.6,2.5l-0.3-23
			c-0.1-7.7-0.1-15.4-0.2-23c0-7.7-0.1-15.4-0.1-23l0-23l0-15.7l9.3,12.8c3.1,4.3,6.2,8.6,9.3,12.9c3.1,4.3,6.2,8.6,9.3,13l9.1,13.1
			l9,13.1l-10.3,0.2l7.6-12.7l7.7-12.7c2.6-4.2,5.1-8.5,7.6-12.8l7.6-12.8l12.3-20.6l-0.3,23.9l-0.3,23.1l-0.4,23.1l-0.8,46.2
			L755,845l22.1,0.5l22.1,0.6l-5.2,5.1c0.1-7.2,0.4-14.4,0.6-21.6c0.2-7.2,0.5-14.4,0.7-21.6l1.5-43.1c0.3-7.2,0.5-14.4,0.7-21.6
			l0.3-10.8l0.2-10.8c0.4-14.4,0.5-28.8,0.7-43.2l1.5,1.8l-10.9-1.9l-10.9-1.8l-21.8-3.4l2.4-1.1c-2.8,4.8-5.5,9.6-8.2,14.4
			l-8.2,14.4l-16.3,28.8l-3.2,5.7l-4-5.5l-8.5-11.8c-2.8-3.9-5.7-7.9-8.5-11.8c-5.6-7.9-11.2-15.9-16.7-23.9l9.8-3l0,0.2l0,4.6
			l-4.6,0.7l-10.9,1.7l-10.9,1.7l-21.9,3.3l4.4-5c-0.4,13.1-1,26.2-1.5,39.4c-0.5,13.1-1.3,26.4-2,39.6c-0.3,6.6-0.8,13.3-1.2,20
			l-1.2,20.2L643,847.1z"/>
	</g>
</g>
<g>
	<g>
		<path d="M922.3,675.4l1.2,21.9c0.2,3.7,0.4,7.6,0.6,11.4c0.2,3.8,0.3,7.7,0.5,11.6l0.1,2.8l-3,0.1l-16.4,0.4
			c-5.5,0.2-10.9,0.2-16.4,0.3l-16.4,0.3l-16.4,0.2l4.8-4.8l0.3,21.7l-5.1-5.1l16.9-0.1l16.9,0c5.6,0,11.3,0.1,16.9,0.1
			c5.6,0.1,11.3,0.2,16.9,0.3l5.3,0.1l-0.1,5.1c-0.1,7.4-0.3,14.8-0.6,22.2c-0.2,7.4-0.5,14.8-0.8,22.2l-0.2,4.2l-3.9-0.2l-16.8-0.7
			l-16.8-0.7l-16.9-0.6c-5.6-0.2-11.2-0.3-16.9-0.5l2-2l0,11.6l0.1,11.6l-1.8-1.8c5.6,0.1,11.3,0,16.9,0.1c5.6,0,11.3,0,16.9,0
			l16.9-0.1l16.9-0.3l2.6,0l0.1,2.8l0.8,44.2l0.1,3.9l-4.1,0.1c-9.3,0.2-18.5,0.4-27.8,0.6c-9.3,0.2-18.5,0.2-27.8,0.3l-55.7,0.8
			l-6,0.1l-0.1-6.1c-0.1-14.8-0.4-29.7-0.4-44.5c-0.1-14.8-0.1-29.7,0-44.5c0.1-14.8,0.3-29.7,0.5-44.5l0.4-22.3l0.5-22.3l0.1-5
			l4.7,0.1l13.7,0.4l13.7,0.5l13.7,0.5l13.7,0.5c9.5,0.4,19,0.9,28.2,1.5L922.3,675.4z M921.4,676.3c-9.5,0.4-18.8,0.8-27.8,1.3
			c-9.1,0.4-17.9,0.8-26.7,1.1l-13.7,0.5l-13.7,0.4l-13.7,0.4l-13.7,0.3l4.8-4.8l0.6,22.3l0.4,22.3c0.3,14.8,0.5,29.7,0.6,44.5
			c0.1,14.8,0.2,29.7,0.2,44.5c0,14.8-0.2,29.7-0.3,44.5l-6-6l55.7,0.6c9.3,0.2,18.6,0.4,27.9,0.7c9.3,0.3,18.6,0.6,27.9,1l-4.1,4
			l1.8-44.2l2.7,2.7l-16.9-0.5l-16.9-0.4c-5.6-0.2-11.3-0.2-16.9-0.3c-5.6-0.1-11.3-0.2-16.9-0.2l-1.8,0l0-1.8l-0.2-11.6l-0.3-11.6
			l0-2l2.1,0c5.6,0,11.2-0.1,16.9-0.2l16.9-0.4l16.9-0.5l16.9-0.5l-4.1,4c-0.2-7.4-0.4-14.8-0.6-22.2c-0.2-7.4-0.3-14.8-0.4-22.2
			l5.2,5.3c-5.6,0.1-11.3,0-16.9,0c-5.6,0-11.3-0.1-16.9-0.1l-16.9-0.2l-16.9-0.3l-5.1-0.1l0.1-5l0.3-21.7l0.1-4.9l4.7,0.2l16.4,0.5
			l16.4,0.6c5.5,0.2,10.9,0.4,16.4,0.7l16.4,0.8l-2.9,2.9c0.2-3.5,0.4-7.1,0.6-10.7c0.2-3.6,0.4-7.2,0.7-10.8l0.7-11.1L921.4,676.3z
			"/>
	</g>
</g>
<g>
	<g>
		<path d="M500.5,913.4c1.1,2.6,2.1,5.2,2.9,7.9c0.9,2.7,1.5,5.4,2.1,8.2c1.1,5.5,2,11.1,2.5,16.7c0.6,5.6,0.8,11.3,1,16.9l0.3,8.4
			l0,8.4l0,8.4c0,2.8-0.1,5.8-0.4,8.6c-0.2,2.9-0.6,5.8-1,8.6c-0.5,2.8-1,5.7-1.7,8.6c-1.4,5.7-3.5,11.3-6.2,16.6
			c-2.7,5.5-6.4,10.5-10.7,14.8c-1.1,1.1-2.2,2.1-3.4,3.1c-1.2,1-2.4,1.9-3.7,2.8c-2.5,1.7-5.1,3.3-7.9,4.6
			c-2.7,1.3-5.5,2.3-8.3,3.2c-2.8,0.9-5.7,1.6-8.6,2.1c-5.8,1-11.5,1.3-17.2,1.3c-2.9,0-5.7-0.1-8.5-0.3c-2.8-0.1-5.7-0.4-8.5-0.7
			c-5.6-0.7-11.3-1.7-16.8-3.4c-2.7-0.9-5.4-1.9-8.1-3.1c-2.6-1.3-5.1-2.7-7.5-4.2c-4.8-3.1-9.3-6.9-13.2-11.3
			c-1.9-2.2-3.7-4.6-5.3-7c-1.6-2.5-3-5-4.3-7.6c-2.6-5.3-4.5-10.8-5.9-16.5c-1.4-5.8-2.1-11.3-2.9-17c-0.7-5.6-1.1-11.3-1.4-17
			c-0.3-5.7-0.4-11.4-0.2-17.2c0.2-5.8,0.7-11.5,1.5-17.3c0.4-2.9,0.9-5.7,1.4-8.6c0.6-2.9,1.3-5.8,2.1-8.7
			c1.7-5.8,4.1-11.4,7.1-16.7c3-5.2,6.7-10.3,11.2-14.6c4.4-4.3,9.4-8,14.8-10.9c1.3-0.7,2.7-1.4,4.1-2.1c1.4-0.7,2.8-1.3,4.3-1.8
			c2.9-1.1,5.8-1.9,8.7-2.6c5.9-1.3,11.8-1.9,17.6-2c5.8,0,11.6,0.3,17.4,1.2c5.8,0.9,11.5,2.4,16.9,4.6c5.4,2.2,10.5,5,15.1,8.4
			c4.6,3.4,8.7,7.6,11.9,12.2c1.6,2.3,3.1,4.7,4.5,7.1C498,908.3,499.3,910.8,500.5,913.4z M499.4,913.9c-1.2-2.5-2.5-5-3.9-7.3
			c-1.5-2.3-3-4.6-4.7-6.8c-3.4-4.3-7.6-7.9-12.3-10.6c-2.3-1.4-4.8-2.5-7.3-3.5c-2.5-1-5.1-1.7-7.7-2.4c-5.2-1.3-10.5-1.8-15.9-1.9
			c-5.3-0.1-10.7,0.4-16.1,1c-2.6,0.3-5.3,0.7-7.8,1.3c-2.6,0.5-5.1,1.1-7.6,1.8c-2.5,0.7-4.9,1.6-7.2,2.6c-1.2,0.5-2.3,1-3.4,1.6
			c-1.1,0.6-2.2,1.2-3.3,1.8c-4.4,2.6-8.4,5.6-11.9,9.2c-1.7,1.8-3.4,3.6-4.9,5.6c-1.5,2-2.9,4.1-4.2,6.3c-2.6,4.4-4.6,9.1-6.3,14
			c-0.8,2.4-1.5,4.9-2.1,7.5c-0.6,2.6-1.1,5.2-1.6,7.9c-0.9,5.3-1.6,10.6-2,16c-0.4,5.4-0.5,10.8-0.5,16.3c0,5.5,0.2,11,0.4,16.4
			c0.1,2.7,0.3,5.5,0.5,8.2c0.2,2.8,0.4,5.4,0.8,8c0.7,5.3,2,10.5,3.9,15.5c0.9,2.5,2,4.9,3.2,7.3c1.2,2.4,2.6,4.6,4.2,6.7
			c1.6,2.1,3.4,4.1,5.3,6c1.9,1.9,4,3.6,6.2,5.1c4.4,3.2,9.2,5.6,14.4,7.2c5.2,1.6,10.6,2.5,16.1,3c10.9,0.8,22.1,0.1,32.4-2.9
			c2.6-0.7,5-1.6,7.4-2.7c2.4-1.1,4.7-2.3,7-3.7c2.2-1.4,4.3-2.8,6.2-4.5c1-0.8,1.9-1.7,2.8-2.6c0.9-0.9,1.8-1.8,2.6-2.8
			c3.4-3.8,6.1-8.1,8.3-12.6c2.2-4.7,4.1-9.6,5.5-14.7c0.7-2.5,1.4-5.1,1.9-7.7c0.6-2.6,1.1-5.3,1.6-7.9c0.5-2.7,0.9-5.3,1.2-8
			l1.1-8.3l1.2-8.3l0.9-8.3c0.3-2.8,0.6-5.6,0.9-8.3c0.2-2.7,0.3-5.5,0.4-8.3c0.1-5.5-0.3-11.1-1.1-16.6c-0.4-2.7-1-5.4-1.7-8.1
			C501.4,919,500.4,916.4,499.4,913.9z"/>
		<path d="M461.3,963c0.2-5.3,0-10.5-0.4-15.8c-0.3-2.6-0.9-5.1-1.7-7.4c-0.8-2.3-1.9-4.6-3.2-6.3c-1.3-1.7-2.8-3-4.5-4.1
			c-0.9-0.5-1.6-0.9-2.5-1.2c-0.9-0.3-1.8-0.6-2.8-0.8c-2-0.4-4.3-0.6-6.6-0.6c-2.4-0.1-4.8-0.1-7.2,0c-2.3,0.1-4.6,0.4-6.7,0.9
			c-0.5,0.1-1,0.3-1.5,0.4c-0.5,0.2-1,0.4-1.6,0.6c-1,0.5-2,1-2.9,1.6c-1.9,1.3-3.5,2.9-4.7,5c-1.3,2.1-2.2,4.4-2.9,6.8
			c-0.7,2.4-1.1,4.9-1.3,7.5c-0.2,2.6-0.3,5.2-0.3,7.8c0,2.6,0.1,5.2,0.3,7.8c0.2,2.6,0.5,5.2,0.8,7.9c0.6,5.2,1.3,10.5,1.7,15.7
			c0.3,2.4,0.7,4.8,1.2,7.1c0.5,2.2,1.2,4.4,2.2,6.1c0.9,1.7,2,3,3.4,4c0.7,0.5,1.4,0.9,2.2,1.3c0.8,0.3,1.6,0.6,2.6,0.8
			c2,0.5,4.2,0.7,6.5,0.9c1.2,0.1,2.4,0.1,3.6,0.1l0.9,0l0.8,0c0.5,0,1,0,1.5-0.1c2-0.1,3.8-0.6,5.4-1.2c0.8-0.3,1.5-0.7,2.2-1.2
			c0.3-0.3,0.6-0.5,1-0.8c0.4-0.4,0.8-0.7,1.1-1.1c3-3.1,5.5-6.8,7.4-11.5c2-4.6,3.6-9.5,4.5-14.7C460.5,973.5,461,968.3,461.3,963z
			 M462.5,963c-0.2,5.3,0,10.6,0.4,15.8c0.4,5.4,0.6,10.9,0,16.6c-0.1,0.7-0.2,1.4-0.3,2.1c-0.1,0.7-0.2,1.5-0.4,2.2
			c-0.3,1.5-0.7,2.9-1.2,4.3c-0.5,1.4-1.1,2.8-1.8,4.2c-0.7,1.4-1.5,2.7-2.5,4c-0.5,0.6-0.9,1.2-1.5,1.8c-0.5,0.6-1.2,1.3-1.9,1.9
			c-1.3,1.2-2.8,2.3-4.4,3.1c-3.2,1.7-6.5,2.6-9.8,2.9c-0.8,0.1-1.6,0.1-2.4,0.2l-1.2,0l-1.1,0c-1.4,0-2.9,0-4.3-0.2
			c-2.9-0.3-5.9-0.7-9-1.6c-1.6-0.5-3.2-1.1-4.8-2c-1.5-0.8-3-1.9-4.4-3c-2.7-2.4-4.7-5.4-6-8.5c-1.3-3-1.9-6-2.3-9
			c-0.4-2.9-0.5-5.8-0.3-8.7c0.3-5.3,0.9-10.6,1.3-15.9l1.4-15.9l0.7-8c0.3-2.7,0.6-5.4,1.1-8.1c0.5-2.7,1.2-5.4,2.3-8.1
			c1-2.7,2.6-5.4,4.6-7.7c1-1.1,2.2-2.2,3.4-3.1c0.6-0.5,1.2-0.9,1.9-1.3c0.7-0.4,1.4-0.8,2.1-1.2c2.8-1.5,5.7-2.4,8.6-2.9
			c2.9-0.6,5.7-0.8,8.6-0.9c2.9,0,6,0.2,9.1,1c1.5,0.4,3.1,1,4.6,1.8c1.5,0.8,3,1.9,4.2,3c2.5,2.3,4.3,5.1,5.4,8.1
			c1.1,3.1,1.4,5.9,1.5,8.8c0.1,2.8-0.1,5.6-0.4,8.3C463.1,952.5,462.6,957.8,462.5,963z"/>
	</g>
</g>
<g>
	<g>
		<path d="M586.4,987.8c4.4-10.1,8.5-19.9,12.6-29.7l11.7-28.6c3.9-9.3,7.6-18.5,11.5-27.6c3.9-9,7.9-18,12-26.9l2.2-4.7l4.8,2.2
			l20.1,9.4l10,4.8c3.3,1.6,6.6,3.2,9.9,4.9l4.8,2.4l-2.3,4.6c-3.3,6.7-6.7,13.3-10.1,20c-3.4,6.6-6.9,13.2-10.3,19.9
			c-6.9,13.2-13.9,26.4-20.6,39.7c-6.7,13.3-13.1,26.8-19.4,40.3c-3.2,6.8-6.2,13.6-9.3,20.4c-3,6.8-6,13.6-9,20.5l-0.7,1.6l-2,0
			l-37.4-0.4l-2.6,0l-1.1-2.7c-11.2-26.5-21.7-53.4-32.3-80.1l-7.9-20.1l-3.9-10l-3.9-10.1c-2.6-6.7-5.1-13.5-7.7-20.2l-7.5-20.3
			l-2.2-5.9l5.8-2.1c7-2.6,13.9-5.2,20.9-7.7l20.9-7.6l5.3-1.9l1.8,5.1c3.1,8.8,6,17.7,8.9,26.6c2.9,8.9,5.7,18,8.6,27.2
			c2.8,9.2,5.8,18.6,8.8,28.2C579.8,968.3,583,978,586.4,987.8z M586.3,989c-3.5-8.5-7.1-17-10.9-25.8l-11.7-26.7
			c-3.9-9.1-8-18.3-11.9-27.6c-3.9-9.4-7.8-18.8-11.6-28.2l7.1,3.2l-20.6,8.5c-6.9,2.8-13.7,5.6-20.6,8.3l3.6-8l7.8,20.1
			c2.5,6.7,5.2,13.4,7.7,20.2l3.8,10.1l3.7,10.1l7.4,20.3c9.8,27.1,19.7,54.1,28.9,81.4l-3.7-2.7l37.2,3.1l-2.7,1.6
			c3.4-6.6,6.8-13.3,10.1-19.9c3.3-6.7,6.7-13.3,9.9-20.1c6.5-13.4,12.8-26.9,18.9-40.6c6-13.6,11.8-27.4,17.6-41.1
			c2.9-6.9,5.8-13.7,8.8-20.6c2.9-6.9,6-13.7,9.1-20.5l2.5,7c-3.4-1.5-6.7-3.1-10.1-4.6l-10-4.7l-19.9-9.7l7-2.5
			c-4.7,9.6-9.4,19.1-14.3,28.6c-4.8,9.5-9.9,18.8-14.8,28l-14.6,27C595.3,971.9,590.7,980.6,586.3,989z"/>
	</g>
</g>
<g>
	<g>
		<path d="M792.2,882.8l1.2,21.9c0.2,3.7,0.4,7.6,0.6,11.4c0.2,3.8,0.3,7.7,0.5,11.6l0.1,2.8l-3,0.1l-16.4,0.4
			c-5.5,0.2-10.9,0.2-16.4,0.3l-16.4,0.3l-16.4,0.2l4.8-4.8l0.3,21.7l-5.1-5.1l16.9-0.1l16.9,0c5.6,0,11.3,0.1,16.9,0.1
			c5.6,0.1,11.3,0.2,16.9,0.3l5.3,0.1l-0.1,5.1c-0.1,7.4-0.3,14.8-0.6,22.2c-0.2,7.4-0.5,14.8-0.8,22.2l-0.2,4.2l-3.9-0.2l-16.8-0.7
			l-16.8-0.7l-16.9-0.6c-5.6-0.2-11.2-0.3-16.9-0.5l2-2l0,11.6l0.1,11.6l-1.8-1.8c5.6,0.1,11.3,0,16.9,0.1c5.6,0,11.3,0,16.9,0
			l16.9-0.1l16.9-0.3l2.6,0l0.1,2.8l0.8,44.2l0.1,3.9l-4.1,0.1c-9.3,0.2-18.5,0.4-27.8,0.6c-9.3,0.2-18.5,0.2-27.8,0.3l-55.7,0.8
			l-6,0.1l-0.1-6.1c-0.1-14.8-0.4-29.7-0.4-44.5c-0.1-14.8-0.1-29.7,0-44.5c0.1-14.8,0.3-29.7,0.5-44.5l0.4-22.3l0.5-22.3l0.1-5
			l4.7,0.1l13.7,0.4l13.7,0.5l13.7,0.5l13.7,0.5c9.5,0.4,19,0.9,28.2,1.5L792.2,882.8z M791.4,883.7c-9.5,0.4-18.8,0.8-27.8,1.3
			c-9.1,0.4-17.9,0.8-26.7,1.1l-13.7,0.5l-13.7,0.4l-13.7,0.4l-13.7,0.3l4.8-4.8l0.6,22.3l0.4,22.3c0.3,14.8,0.5,29.7,0.6,44.5
			c0.1,14.8,0.2,29.7,0.2,44.5c0,14.8-0.2,29.7-0.3,44.5l-6-6l55.7,0.6c9.3,0.2,18.6,0.4,27.9,0.7c9.3,0.3,18.6,0.6,27.9,1l-4.1,4
			l1.8-44.2l2.7,2.7l-16.9-0.5l-16.9-0.4c-5.6-0.2-11.3-0.2-16.9-0.3c-5.6-0.1-11.3-0.2-16.9-0.2l-1.8,0l0-1.8l-0.2-11.6l-0.3-11.6
			l0-2l2.1,0c5.6,0,11.2-0.1,16.9-0.2l16.9-0.4l16.9-0.5l16.9-0.5l-4.1,4c-0.2-7.4-0.4-14.8-0.6-22.2c-0.2-7.4-0.3-14.8-0.4-22.2
			l5.2,5.3c-5.6,0.1-11.3,0-16.9,0c-5.6,0-11.3-0.1-16.9-0.1l-16.9-0.2l-16.9-0.3l-5.1-0.1l0.1-5l0.3-21.7l0.1-4.9l4.7,0.2l16.4,0.5
			l16.4,0.6c5.5,0.2,10.9,0.4,16.4,0.7l16.4,0.8l-2.9,2.9c0.2-3.5,0.4-7.1,0.6-10.7c0.2-3.6,0.4-7.2,0.7-10.8l0.7-11.1L791.4,883.7z
			"/>
	</g>
</g>
<g>
	<g>
		<path d="M890.4,985.5c4.7,3,9.3,6,13.9,8.8l13.4,8.3c4.4,2.7,8.7,5.4,12.9,8.1c4.3,2.7,8.4,5.4,12.5,8.2l3.3,2.2l-2.4,3.5
			l-6.2,9.2l-6.3,9.1l-6.4,9.1l-6.4,9.1l-2.9,4.1l-4.3-3c-5.1-3.6-10.2-7.2-15.2-10.8c-2.5-1.8-5.1-3.6-7.6-5.4
			c-2.5-1.8-5-3.6-7.5-5.5c-5-3.7-10-7.4-14.9-11.2c-4.9-3.8-9.8-7.6-14.7-11.5l6.9-3.6l-0.3,19.9c-0.1,6.6-0.2,13.3-0.2,19.9l0,2.7
			l-2.5,0c-7.4-0.1-14.7-0.1-22.1,0c-3.7,0.1-7.4,0.1-11.1,0.2c-3.7,0.1-7.4,0.2-11.1,0.3l-1.8,0.1l-0.1-1.8
			c-0.2-7.4-0.6-14.8-1-22.2c-0.3-7.4-0.8-14.8-1.3-22.2l-3.1-44.3c-1.1-14.8-1.9-29.6-2.7-44.3l-2.2-44.3l-0.3-6.2l6.3-0.3
			l13.1-0.5l13.1-0.4l6.6-0.2c2.3,0,4.5,0,6.8,0c4.5,0.1,9.1,0.4,13.6,0.9c4.5,0.5,9,1.2,13.5,2.1c4.6,1,9.1,2.3,13.4,3.9
			c4.4,1.7,8.6,3.7,12.6,6.1c2,1.2,4.1,2.5,6,4c1.9,1.5,3.8,3.1,5.5,4.9c3.4,3.5,6.2,7.4,8.6,11.5c1.2,2.1,2.2,4.1,3.2,6.3
			c1,2.3,1.7,4.4,2.4,6.7c1.3,4.6,2,9.3,2,14.1c0,4.8-0.6,9.4-1.8,13.9c-1.2,4.5-2.9,8.8-5.1,12.9c-2.1,4-4.7,7.8-7.6,11.3
			c-2.9,3.5-6.1,6.6-9.5,9.5c-1.7,1.4-3.5,2.8-5.3,4c-0.9,0.6-1.9,1.2-2.8,1.8l-1.4,0.8c-0.3,0.2-0.4,0.2-0.5,0.2
			C890.9,985.4,890.7,985.4,890.4,985.5z M889.2,985.5c0.2-0.2,0.4-0.5,0.7-0.8c0.3-0.3,0.7-0.5,0.8-0.7l1.3-1
			c0.8-0.7,1.6-1.4,2.4-2.1c1.6-1.5,3.1-2.9,4.6-4.5c2.9-3.1,5.6-6.5,7.9-10c4.6-7.1,8-14.9,9.3-22.9c0.7-4,0.9-8.1,0.6-12.1
			c-0.3-4-1.2-7.8-2.5-11.6c-0.7-1.8-1.5-3.8-2.3-5.5c-0.9-1.7-1.9-3.5-3-5.2c-2.2-3.4-4.7-6.4-7.5-9c-1.4-1.3-2.9-2.5-4.5-3.6
			c-1.6-1.1-3.2-2.1-5-3c-3.6-1.9-7.3-3.5-11.1-4.8c-3.8-1.3-7.8-2.3-11.8-3c-4.1-0.7-8.2-1.3-12.4-1.7c-4.2-0.4-8.3-0.6-12.5-0.7
			c-2.1,0-4.2,0-6.3,0l-6.5,0.2l-13.1,0.3l-13.1,0.2l6-6.4l0.9,44.4c0.3,14.8,0.5,29.6,0.4,44.4l-0.3,44.4c0,7.4,0,14.8,0.1,22.2
			c0.1,7.4,0.2,14.8,0.4,22.2l-1.9-1.8c3.7-0.1,7.4-0.2,11.1-0.3c3.7-0.1,7.4-0.3,11-0.4c7.4-0.3,14.7-0.7,22.1-1.2l-2.5,2.6
			c-0.5-6.6-0.9-13.2-1.5-19.9l-1.5-19.9l-0.7-8.7l7.5,5c5.2,3.5,10.4,6.9,15.5,10.4c5.1,3.5,10.3,7,15.3,10.6
			c2.5,1.8,5.1,3.6,7.6,5.4c2.5,1.8,5,3.6,7.5,5.5c5,3.7,10,7.4,15,11.1l-7.2,1.1l6.7-8.8l6.7-8.8l6.8-8.8l6.9-8.7l0.9,5.7
			c-4.4-3.4-8.7-6.8-12.9-10.2c-4.2-3.4-8.5-6.9-12.5-10.3l-12-10.1L889.2,985.5z"/>
		<path d="M851.7,922c0.6,1.9,1.1,3.7,1.6,5.3c0.5,1.6,0.9,3.2,1.4,4.6c0.8,2.9,1.5,5.5,1.9,8c0.2,1.2,0.4,2.4,0.5,3.6
			c0.1,1.2,0,2.3-0.2,3.5c-0.4,2.3-1.4,4.7-2,7.3l-3.2-2.4c5.3,0.1,10.1-2.9,13.2-7c1.6-2,2.9-4.1,4-5.9c0.5-0.9,1-1.8,1.3-2.6
			c0.1-0.4,0.3-0.8,0.3-1.2c0.1-0.4,0.1-0.7,0.1-0.9c-0.1-0.5-0.2-0.5-0.3-0.6l-0.2-0.3c0-0.1-0.2-0.2-0.3-0.4
			c-0.7-0.9-2.6-2.2-4.5-3.4c-1.9-1.1-4.2-2.2-6.5-3.4c-1.2-0.6-2.4-1.2-3.7-1.8c-0.6-0.3-1.2-0.7-1.9-1c-0.3-0.2-0.8-0.3-0.7-0.5
			C852.3,922.5,852.1,922.2,851.7,922z M850.9,921.1c0.3-0.2,0.7-0.4,1.3-0.6c0.7-0.2,0.9-0.2,1.3-0.4c0.7-0.2,1.4-0.4,2.1-0.6
			c1.4-0.4,2.9-0.6,4.3-0.8c2.9-0.3,5.9-0.3,9.1,0.3c0.8,0.2,1.6,0.3,2.3,0.6c0.8,0.2,1.6,0.5,2.3,0.8c1.6,0.7,3.2,1.5,4.8,2.9
			c0.8,0.7,1.6,1.5,2.3,2.6c0.7,1,1.2,2.1,1.6,3.3c0.8,2.4,0.8,5.1,0.2,7.3c-0.3,1.1-0.7,2.1-1.1,2.9c-0.4,0.8-0.9,1.6-1.4,2.4
			c-1,1.5-2.1,2.8-3.3,3.9c-2.4,2.2-5.2,3.6-8,4.7c-5.7,2-10.7,3.6-15.8,6.4l-2.2,1.2l-1-3.7c-0.8-2.9-1.9-5.9-2.5-9.1
			c-0.3-1.6-0.5-3.2-0.5-4.8c0-1.6,0.1-3.1,0.2-4.6c0.3-3,0.8-5.9,1.4-8.4c0.3-1.3,0.7-2.5,1.1-3.6
			C849.9,922.9,850.3,921.9,850.9,921.1z"/>
	</g>
</g>
</svg>
